<?xml version="1.0" encoding="utf-8"?>
<!-- Generator: Adobe Illustrator 19.0.1, SVG Export Plug-In . SVG Version: 6.00 Build 0)  -->
<svg version="1.1" id="Capa_1" xmlns="http://www.w3.org/2000/svg" xmlns:xlink="http://www.w3.org/1999/xlink" x="0px" y="0px"
	 viewBox="-41 164.8 512.1 512.1" style="enable-background:new -41 164.8 512.1 512.1;" xml:space="preserve">
<style type="text/css">
	.st0{fill:#B3B3B3;}
</style>
<g>
	<path class="st0" d="M439.7,578.9c-10.8-15.8-25.8-26.8-43.5-31.7c-0.2,0-0.3-0.1-0.5-0.1l-63.8-13.3l-17.2-26
		c-0.1-0.1-0.2-0.3-0.3-0.4c-2.6-3.5-6.6-5.8-10.9-6.3c-4.3-0.5-8.7,0.8-12.1,3.5c-0.1,0-0.1,0.1-0.2,0.1L215,570.3l-76.3-65.7
		c-0.1,0-0.1-0.1-0.2-0.1c-3.4-2.7-7.8-4-12.1-3.5c-4.3,0.5-8.3,2.8-10.9,6.3c-0.1,0.1-0.2,0.3-0.3,0.4l-17.2,26l-63.8,13.3
		c-0.2,0-0.3,0.1-0.5,0.1c-17.7,5-32.7,15.9-43.5,31.7C-19.5,593.4-25,610.8-25,628v19.8c0,16,14.4,29,32,29h184c0,0,0,0,0,0
		c0,0,0,0,0,0H239c0,0,0,0,0,0c0,0,0,0,0,0h184c17.6,0,32-13,32-29V628C455,610.8,449.6,593.4,439.7,578.9z M301.6,516.9l15.7,23.8
		l-55.2,75.9l-17.4-17.4c0,0,0,0,0,0l-17.9-17.9L301.6,516.9z M207,636.9h16c0.5,0,1,0,1.4,0l4.8,24h-28.5l4.8-24
		C206.1,636.9,206.5,636.9,207,636.9z M231,612.9c0,4.4-3.6,8-8,8h-16c-4.4,0-8-3.6-8-8v-4.7l16-16l16,16L231,612.9L231,612.9z
		 M128.4,516.9l74.8,64.4l-17.9,17.9c0,0,0,0,0,0L168,616.6l-55.2-75.9L128.4,516.9z M-9,647.9V628c0-25.9,16.1-56.6,46.9-65.3
		l61.7-12.9l61,83.8c1.4,1.9,3.5,3.1,5.8,3.3c0.2,0,0.4,0,0.6,0c2.1,0,4.1-0.8,5.7-2.3l12.3-12.3c1.3,3.1,3.2,5.8,5.6,8.1l-6.1,30.5
		H7C-1.8,660.9-9,655-9,647.9z M439,647.9c0,7.2-7.2,13-16,13H245.6l-6.1-30.5c2.4-2.3,4.3-5,5.6-8.1l12.3,12.3
		c1.5,1.5,3.5,2.3,5.7,2.3c0.2,0,0.4,0,0.6,0c2.3-0.2,4.5-1.4,5.8-3.3l61-83.8l61.7,12.9c30.8,8.8,46.9,39.5,46.9,65.3V647.9z"/>
	<path class="st0" d="M79,419.5v97.4c0,4.4,3.6,8,8,8s8-3.6,8-8v-96h7.3c5.9,18.7,15.2,36.3,27.3,51.3
		c23.3,28.8,53.6,44.7,85.5,44.7c24.7,0,48.6-9.6,69.2-27.7c0.1-0.1,0.2-0.2,0.3-0.3c1.3,0.1,2.6,0.1,3.9,0.1
		c9.3,0,18.9-2.2,28.1-6.7c30.2-14.6,50.5-48.9,50.5-85.4v-48c0-13.2-10.8-24-24-24h-3.3c17.7-67.6,9.7-123.1,2.6-139.2
		c0,0,0-0.1,0-0.1c-0.1-0.2-0.1-0.3-0.2-0.5c0-0.1-0.1-0.2-0.1-0.3c-0.1-0.1-0.2-0.3-0.2-0.4c-0.1-0.1-0.1-0.2-0.2-0.3
		c-0.1-0.1-0.1-0.2-0.2-0.3c-0.1-0.1-0.2-0.2-0.3-0.3c-0.1-0.1-0.1-0.1-0.2-0.2c-0.1-0.1-0.2-0.2-0.4-0.4c-0.1-0.1-0.1-0.1-0.2-0.1
		c-0.1-0.1-0.3-0.2-0.4-0.3c-0.1,0-0.1-0.1-0.2-0.1c-0.1-0.1-0.3-0.2-0.4-0.3c-0.1-0.1-0.2-0.1-0.3-0.1c-0.1-0.1-0.3-0.2-0.4-0.2
		c-0.1-0.1-0.2-0.1-0.3-0.1c-0.1-0.1-0.2-0.1-0.4-0.2c-0.1,0-0.2-0.1-0.4-0.1c-0.1,0-0.2-0.1-0.4-0.1c-0.1,0-0.2-0.1-0.4-0.1
		c-0.1,0-0.3-0.1-0.4-0.1c-0.1,0-0.2,0-0.3,0c-0.2,0-0.3,0-0.5-0.1c-0.1,0-0.2,0-0.3,0c-0.2,0-0.3,0-0.5,0c-0.1,0-0.2,0-0.2,0
		c-0.2,0-0.4,0-0.6,0.1c0,0-0.1,0-0.1,0c-20.1,2.9-44.4-2-70.1-7.2c-43.1-8.7-87.7-17.6-122.5,7.3c-0.5-0.1-1.1-0.2-1.6-0.2
		c-35.7,0-60.7,29.6-60.7,72c0,19.6,4.9,49.4,9.3,72H87c-13.2,0-24,10.8-24,24v48C63,407.3,69.7,416.2,79,419.5z M309.6,467.9
		c-16.9,8.2-34.2,6.5-48.9-4.7c1.5-3.1,2.3-6.6,2.3-10.3c0-13.2-10.8-24-24-24s-24,10.8-24,24s10.8,24,24,24c3.7,0,7.2-0.8,10.3-2.3
		c0.2,0.2,0.4,0.4,0.7,0.6c4.7,3.7,9.7,6.7,14.9,8.9c-15.5,11-32.5,16.8-49.8,16.8c-26.9,0-52.8-13.8-73-38.7
		c-19.9-24.7-31.3-57.3-31.3-89.5v-9.1c0-28.5,16.2-67,21.7-79.2c55.3-6.5,99.3,0,126.8,6.7c24.1,5.9,39.9,12.9,45.6,15.7l14.4,34.3
		v31.7c0,26.5-7.7,53.5-21.7,76c-2.3,3.8-1.2,8.7,2.6,11c1.3,0.8,2.8,1.2,4.2,1.2c2.7,0,5.3-1.3,6.8-3.8c7-11.2,12.5-23.5,16.5-36.2
		H343c1.5,0,3.1-0.2,4.5-0.4C341.4,441.3,327.5,459.3,309.6,467.9z M247,452.9c0,4.4-3.6,8-8,8s-8-3.6-8-8c0-4.4,3.6-8,8-8
		S247,448.5,247,452.9z M351,348.9v48c0,4.4-3.6,8-8,8h-11.2c2.2-10.6,3.4-21.5,3.4-32.2v-31.8h7.8C347.4,340.9,351,344.5,351,348.9
		z M139.7,196.9c0.8,0,1.5-0.1,2.2-0.3c2.3,0.7,5,0.3,7-1.3c29.4-22.3,71.2-13.9,111.7-5.8c21.2,4.3,41.5,8.3,60.3,8.3
		c2.9,0,5.7-0.1,8.6-0.3c4.9,17.8,9.6,62.5-3.8,117.7l-7.3-17.4c-0.7-1.7-1.9-3-3.5-3.9c-3-1.6-73.6-39.8-188.9-24.9c0,0,0,0-0.1,0
		c-0.2,0-0.3,0.1-0.5,0.1c-0.1,0-0.2,0-0.3,0.1c-0.1,0-0.2,0.1-0.3,0.1c-0.9,0.3-1.8,0.7-2.5,1.2c0,0,0,0,0,0
		c-0.1,0-0.1,0.1-0.2,0.1c-0.5,0.4-1,0.9-1.4,1.4c0,0,0,0,0,0.1c-0.1,0.1-0.2,0.2-0.2,0.3c-0.1,0.1-0.2,0.2-0.2,0.3
		c-0.1,0.1-0.1,0.2-0.1,0.3c-0.1,0.1-0.2,0.3-0.3,0.5c0,0,0,0,0,0c-0.6,1.3-9.7,20.2-16.7,43.3c-4-21.1-8.1-47-8.1-63.8
		C95,214.2,117.5,196.9,139.7,196.9z M79,348.9c0-4.4,3.6-8,8-8h4.6c1.5,7.1,2.7,12.3,3.2,14.4v17.3c0,10.8,1.2,21.6,3.4,32.3H87
		c-4.4,0-8-3.6-8-8V348.9z"/>
</g>
</svg>
