<?xml version="1.0" encoding="utf-8"?>
<!-- Generator: Adobe Illustrator 19.0.1, SVG Export Plug-In . SVG Version: 6.00 Build 0)  -->
<svg version="1.1" id="Слой_1" xmlns="http://www.w3.org/2000/svg" xmlns:xlink="http://www.w3.org/1999/xlink" x="0px" y="0px"
	 viewBox="334.4 -218 460.7 515.5" style="enable-background:new 334.4 -218 460.7 515.5;" xml:space="preserve">
<style type="text/css">
	.st0{fill:#FF9F5C;}
</style>
<g>
	<path class="st0" d="M603-218c9.7,1,19.5,1.8,29.2,3.1c49.6,6.6,95.2,23.3,134.6,54.9c1,0.8,2,1.7,3.5,3
		c-11.6,17-23.3,34-34.7,50.8c-9.3-6-18-12.5-27.4-17.6c-52-28-106.9-38.1-165-24.2c-38.6,9.2-56.3,46.7-39.7,83
		c7.5,16.5,20.3,28.3,35.4,37.7c10.3,6.4,21.1,12,32.1,18.1c-5.8,8.3-11.7,16.9-17.6,25.4c-5.9,8.5-11.8,16.9-18,25.9
		C489,19.5,448-8.2,431.8-62.2c-1.2,2.3-2.1,3.7-2.8,5.2c-16,32.2-22.4,66.3-21.3,102.1c1.3,42.2,12.4,81.2,37.5,115.5
		c29.3,40.1,68.8,63.8,117.9,70.4c64.1,8.7,118.2-12.8,164.4-56.5c2.2-2.1,2.5-4.1,2-7.1c-3.6-20.9-16.4-35.3-32.6-47.3
		c-19.1-14.2-40.8-23.8-62.4-33.2c-4.5-2-9.1-4-14-6.1c12.1-17.7,23.8-35.1,36-53C668.7,33.5,681,39,693,45
		c23.8,11.8,46.3,25.7,65.1,44.8c20.1,20.5,32.7,44.7,36.2,73.4c0.1,0.6,0.5,1.2,0.8,1.8c0,20.3,0,40.7,0,61c-2.3,0.4-4.5,0.9-6.8,1
		c-24.4,1.3-46.4,8.2-65.5,24.5c-10.9,9.3-23.5,17.2-36.4,23.4C642.5,296,595.8,301.3,548,295c-69.2-9.1-125.3-42-164.5-99.6
		c-53.8-78.9-63.2-165.3-29.3-253.8c34.5-90.1,102.8-141.5,198.1-156.8c7.8-1.3,15.8-1.9,23.7-2.8C585-218,594-218,603-218z"/>
</g>
</svg>
