<?xml version="1.0" encoding="utf-8"?>
<!-- Generator: Adobe Illustrator 19.0.1, SVG Export Plug-In . SVG Version: 6.00 Build 0)  -->
<svg version="1.1" id="Capa_1" xmlns="http://www.w3.org/2000/svg" xmlns:xlink="http://www.w3.org/1999/xlink" x="0px" y="0px"
	 viewBox="-41 164.9 512 512" style="enable-background:new -41 164.9 512 512;" xml:space="preserve">
<style type="text/css">
	.st0{fill:url(#SVGID_1_);}
	.st1{fill:url(#SVGID_2_);}
</style>
<g>
	<g>
		<linearGradient id="SVGID_1_" gradientUnits="userSpaceOnUse" x1="-32.992" y1="420.8901" x2="462.991" y2="420.8901">
			<stop  offset="0" style="stop-color:#F5574B"/>
			<stop  offset="1" style="stop-color:#FFA05C"/>
		</linearGradient>
		<path class="st0" d="M446.6,464.8h-7.7v-69c0-10.9-5.4-20.6-13.7-26.5v-9.4c0-13.6-11.1-24.7-24.7-24.7h-5.7l21.9-32.1
			c7.3-10.8,4.5-25.5-6.2-32.8L261.9,169c-5.2-3.6-11.5-4.9-17.7-3.7c-6.2,1.2-11.6,4.7-15.1,9.9L100.8,363.3H65.2l8.6-87.1
			c0.1-1,0.7-1.8,1.6-2.2c11.1-4.2,20.7-12,27.1-22c0.5-0.8,1.4-1.2,2.4-1.1l56,5.5c4,0.4,7.6-2.5,8-6.5c0.4-4-2.5-7.6-6.5-8
			l-56-5.5c-6.5-0.6-12.7,2.4-16.2,7.8c-4.7,7.4-11.7,13.1-19.9,16.2c-6.1,2.3-10.4,7.8-11,14.4l-8.7,88.6h-9.3l13.6-137.8
			c0.5-5,4.9-8.6,9.9-8.1l113.1,11.2c4,0.4,7.6-2.5,8-6.5c0.4-4-2.5-7.6-6.5-8L66.1,202.9c-13-1.3-24.6,8.2-25.8,21.2l-11,111.1
			H10.6c-13.6,0-24.7,11.1-24.7,24.7v6.4c-11.2,5.1-18.9,16.4-18.9,29.5v248.7c0,17.9,14.5,32.4,32.4,32.4h407.1
			c17.9,0,32.4-14.5,32.4-32.4v-69h7.7c9,0,16.4-7.4,16.4-16.4v-77.9C463,472.1,455.6,464.8,446.6,464.8z M400.5,349.8L400.5,349.8
			c5.6,0,10.1,4.5,10.1,10.1v3.7c-1.3-0.2-2.7-0.3-4.1-0.3h-31l9.3-13.6H400.5z M241.1,183.4c1.4-2,3.4-3.3,5.8-3.8
			c0.6-0.1,1.1-0.2,1.7-0.2c1.8,0,3.6,0.5,5.1,1.6l148.5,101.2c4.1,2.8,5.2,8.4,2.4,12.6l-46.7,68.5h-11.2l22.9-33.6
			c3.7-5.4,4-12.4,0.8-18.1c-4.3-7.6-6-16.5-4.9-25.2c0.8-6.4-2-12.7-7.4-16.4l-77-52.5c-5.4-3.7-12.3-4-17.9-0.9
			c-7.6,4.2-16.6,5.9-25.2,4.7c-6.4-0.9-12.9,2-16.5,7.4l-91.7,134.6h-11.2L241.1,183.4z M244.3,307.3c-31.8,0-57.9,24.8-60,56h-37
			L233.5,237c0,0,0,0,0,0c0.5-0.7,1.3-1.1,2.1-1.1c0.1,0,0.2,0,0.3,0c11.7,1.6,23.9-0.6,34.3-6.3c0.8-0.5,1.9-0.4,2.7,0.2l77,52.5
			c0.8,0.6,1.2,1.5,1.1,2.4c-1.5,11.7,0.8,23.9,6.6,34.2c0.5,0.8,0.4,1.9-0.1,2.7L329,363.3h-24.7
			C302.2,332.1,276.1,307.3,244.3,307.3z M289.7,363.3H199c2.1-23.2,21.6-41.4,45.3-41.4C268,321.9,287.6,340.2,289.7,363.3z
			 M0.5,359.9c0-5.6,4.5-10.1,10.1-10.1h17.2l-1.3,13.6h-26V359.9z M-18.4,395.8c0-9.8,8-17.8,17.8-17.8h407.1
			c9.8,0,17.8,8,17.8,17.8V416H-18.4V395.8z M424.3,644.5c0,9.8-8,17.8-17.8,17.8H-0.6c-9.8,0-17.8-8-17.8-17.8v-20.2h39.3
			c4,0,7.3-3.3,7.3-7.3s-3.3-7.3-7.3-7.3h-39.3v-179h442.7v34.2H355h0c-21.9,0-40.8,12.7-49.8,31.2c0,0.1-0.1,0.1-0.1,0.2
			c-0.1,0.2-0.1,0.3-0.2,0.5c-1.1,2.3-2,4.6-2.8,7.1c0,0,0,0,0,0c-1.6,5.2-2.5,10.7-2.5,16.4c0,30.5,24.8,55.3,55.3,55.3h0h69.4
			v34.2H67.7c-4,0-7.3,3.3-7.3,7.3s3.3,7.3,7.3,7.3h356.7V644.5z M448.4,559c0,1-0.8,1.8-1.8,1.8H355c-15.4,0-28.9-8.6-35.8-21.3
			c-0.3-0.6-0.6-1.2-0.9-1.8c-0.6-1.2-1.1-2.4-1.5-3.7c-1.6-4.4-2.5-9.1-2.5-14s0.9-9.6,2.5-14c0.5-1.2,1-2.5,1.5-3.7
			c0.3-0.6,0.6-1.2,0.9-1.8c6.9-12.7,20.4-21.3,35.8-21.3h91.6c1,0,1.8,0.8,1.8,1.8L448.4,559L448.4,559z"/>
	</g>
</g>
<g>
	<g>
		<linearGradient id="SVGID_2_" gradientUnits="userSpaceOnUse" x1="327.081" y1="520.1165" x2="386.281" y2="520.1165">
			<stop  offset="0" style="stop-color:#F5574B"/>
			<stop  offset="1" style="stop-color:#FFA05C"/>
		</linearGradient>
		<path class="st1" d="M356.7,490.5c-16.3,0-29.6,13.3-29.6,29.6c0,16.3,13.3,29.6,29.6,29.6s29.6-13.3,29.6-29.6
			C386.3,503.8,373,490.5,356.7,490.5z M356.7,535.1c-8.3,0-15-6.7-15-15c0-8.3,6.7-15,15-15s15,6.7,15,15S365,535.1,356.7,535.1z"
			/>
	</g>
</g>
</svg>
