<?xml version="1.0" encoding="utf-8"?>
<!-- Generator: Adobe Illustrator 19.0.1, SVG Export Plug-In . SVG Version: 6.00 Build 0)  -->
<svg version="1.1" id="Capa_1" xmlns="http://www.w3.org/2000/svg" xmlns:xlink="http://www.w3.org/1999/xlink" x="0px" y="0px"
	 viewBox="-86 334.7 557 502.1" style="enable-background:new -86 334.7 557 502.1;" xml:space="preserve">
<style type="text/css">
	.st0{fill:url(#SVGID_1_);}
	.st1{fill:url(#SVGID_2_);}
	.st2{fill:url(#SVGID_3_);}
	.st3{fill:url(#SVGID_4_);}
	.st4{fill:url(#SVGID_5_);}
	.st5{fill:url(#SVGID_6_);}
	.st6{fill:url(#SVGID_7_);}
	.st7{fill:url(#SVGID_8_);}
	.st8{fill:url(#SVGID_9_);}
	.st9{fill:url(#SVGID_10_);}
	.st10{fill:url(#SVGID_11_);}
	.st11{fill:url(#SVGID_12_);}
	.st12{fill:url(#SVGID_13_);}
	.st13{fill:url(#SVGID_14_);}
	.st14{fill:url(#SVGID_15_);}
	.st15{fill:url(#SVGID_16_);}
	.st16{fill:url(#SVGID_17_);}
	.st17{fill:url(#SVGID_18_);}
	.st18{fill:url(#SVGID_19_);}
</style>
<g>
	<g>
		
			<linearGradient id="SVGID_1_" gradientUnits="userSpaceOnUse" x1="152.9" y1="285.08" x2="194.058" y2="285.08" gradientTransform="matrix(1 0 0 -1 0 841.67)">
			<stop  offset="0" style="stop-color:#F5574B"/>
			<stop  offset="1" style="stop-color:#FFA05C"/>
		</linearGradient>
		<path class="st0" d="M176.3,538.8h-15.9c-4.1,0-7.5,3.4-7.5,7.5v20.6c0,4.1,3.4,7.5,7.5,7.5h15.9c9.8,0,17.8-8,17.8-17.8
			C194.1,546.8,186.1,538.8,176.3,538.8z M176.3,559.4h-8.4v-5.6h8.4c1.5,0,2.8,1.2,2.8,2.8S177.8,559.4,176.3,559.4z"/>
	</g>
</g>
<g>
	<g>
		
			<linearGradient id="SVGID_2_" gradientUnits="userSpaceOnUse" x1="130.5" y1="251.83" x2="216.5" y2="251.83" gradientTransform="matrix(1 0 0 -1 0 841.67)">
			<stop  offset="0" style="stop-color:#F5574B"/>
			<stop  offset="1" style="stop-color:#FFA05C"/>
		</linearGradient>
		<path class="st1" d="M199.7,589.3c10.2-7.3,16.8-19.2,16.8-32.7c0-18.1-12.1-33.5-28.6-38.5v-8.8c0-4.1-3.4-7.5-7.5-7.5
			s-7.5,3.4-7.5,7.5v7.1h-5v-7.1c0-4.1-3.4-7.5-7.5-7.5s-7.5,3.4-7.5,7.5v7.1h-5.6c-9.3,0-16.9,7.6-16.9,16.9v112.1
			c0,9.3,7.6,16.9,16.9,16.9h5.6v8.1c0,4.1,3.4,7.5,7.5,7.5s7.5-3.4,7.5-7.5v-8.1h5v8.1c0,4.1,3.4,7.5,7.5,7.5s7.5-3.4,7.5-7.5v-9.8
			c16.5-5,28.6-20.4,28.6-38.5C216.5,608.6,209.8,596.6,199.7,589.3z M176.3,647.2h-28.9c-1,0-1.9-0.8-1.9-1.9v-112
			c0-1,0.8-1.9,1.9-1.9h28.9c13.9,0,25.2,11.3,25.2,25.2c0,13.9-11.3,25.2-25.2,25.2c-4.1,0-7.5,3.4-7.5,7.5c0,4.1,3.4,7.5,7.5,7.5
			c13.9,0,25.2,11.3,25.2,25.2S190.2,647.2,176.3,647.2z"/>
	</g>
</g>
<g>
	<g>
		
			<linearGradient id="SVGID_3_" gradientUnits="userSpaceOnUse" x1="152.9" y1="219.68" x2="194.058" y2="219.68" gradientTransform="matrix(1 0 0 -1 0 841.67)">
			<stop  offset="0" style="stop-color:#F5574B"/>
			<stop  offset="1" style="stop-color:#FFA05C"/>
		</linearGradient>
		<path class="st2" d="M176.3,604.2h-15.9c-4.1,0-7.5,3.4-7.5,7.5v20.6c0,4.1,3.4,7.5,7.5,7.5h15.9c9.8,0,17.8-8,17.8-17.8
			S186.1,604.2,176.3,604.2z M176.3,624.8h-8.4v-5.6h8.4c1.5,0,2.8,1.2,2.8,2.8S177.8,624.8,176.3,624.8z"/>
	</g>
</g>
<g>
	<g>
		
			<linearGradient id="SVGID_4_" gradientUnits="userSpaceOnUse" x1="16" y1="448.38" x2="104" y2="448.38" gradientTransform="matrix(1 0 0 -1 0 841.67)">
			<stop  offset="0" style="stop-color:#F5574B"/>
			<stop  offset="1" style="stop-color:#FFA05C"/>
		</linearGradient>
		<path class="st3" d="M96.5,351.8h-40c-4.1,0-7.5,3.4-7.5,7.5v10.5H23.5c-4.1,0-7.5,3.4-7.5,7.5v50c0,4.1,3.4,7.5,7.5,7.5h50
			c4.1,0,7.5-3.4,7.5-7.5v-20.5h15.5c4.1,0,7.5-3.4,7.5-7.5v-40C104,355.2,100.6,351.8,96.5,351.8z M66,419.8H31v-35h18v14.5
			c0,4.1,3.4,7.5,7.5,7.5H66V419.8z M89,391.8H64v-25h25V391.8z"/>
	</g>
</g>
<g>
	<g>
		
			<linearGradient id="SVGID_5_" gradientUnits="userSpaceOnUse" x1="-82" y1="38.38" x2="-15" y2="38.38" gradientTransform="matrix(1 0 0 -1 0 841.67)">
			<stop  offset="0" style="stop-color:#F5574B"/>
			<stop  offset="1" style="stop-color:#FFA05C"/>
		</linearGradient>
		<path class="st4" d="M-22.5,769.8h-52c-4.1,0-7.5,3.4-7.5,7.5v52c0,4.1,3.4,7.5,7.5,7.5h52c4.1,0,7.5-3.4,7.5-7.5v-52
			C-15,773.2-18.4,769.8-22.5,769.8z M-30,821.8h-37v-37h37V821.8z"/>
	</g>
</g>
<g>
	<g>
		
			<linearGradient id="SVGID_6_" gradientUnits="userSpaceOnUse" x1="4" y1="90.38" x2="74" y2="90.38" gradientTransform="matrix(1 0 0 -1 0 841.67)">
			<stop  offset="0" style="stop-color:#F5574B"/>
			<stop  offset="1" style="stop-color:#FFA05C"/>
		</linearGradient>
		<path class="st5" d="M66.5,736.8H55v-14.5c0-4.1-3.4-7.5-7.5-7.5h-36c-4.1,0-7.5,3.4-7.5,7.5v36c0,4.1,3.4,7.5,7.5,7.5H23v14.5
			c0,4.1,3.4,7.5,7.5,7.5h36c4.1,0,7.5-3.4,7.5-7.5v-36C74,740.2,70.6,736.8,66.5,736.8z M19,750.8v-21h21v21H19z M59,772.8H38v-7
			h9.5c4.1,0,7.5-3.4,7.5-7.5v-6.5h4V772.8z"/>
	</g>
</g>
<g>
	<g>
		
			<linearGradient id="SVGID_7_" gradientUnits="userSpaceOnUse" x1="225" y1="460.38" x2="268" y2="460.38" gradientTransform="matrix(1 0 0 -1 0 841.67)">
			<stop  offset="0" style="stop-color:#F5574B"/>
			<stop  offset="1" style="stop-color:#FFA05C"/>
		</linearGradient>
		<path class="st6" d="M260.5,359.8h-28c-4.1,0-7.5,3.4-7.5,7.5v28c0,4.1,3.4,7.5,7.5,7.5h28c4.1,0,7.5-3.4,7.5-7.5v-28
			C268,363.2,264.6,359.8,260.5,359.8z M253,387.8h-13v-13h13V387.8z"/>
	</g>
</g>
<g>
	<g>
		
			<linearGradient id="SVGID_8_" gradientUnits="userSpaceOnUse" x1="222" y1="48.38" x2="292" y2="48.38" gradientTransform="matrix(1 0 0 -1 0 841.67)">
			<stop  offset="0" style="stop-color:#F5574B"/>
			<stop  offset="1" style="stop-color:#FFA05C"/>
		</linearGradient>
		<path class="st7" d="M284.5,775.8H271v-10.5c0-4.1-3.4-7.5-7.5-7.5h-34c-4.1,0-7.5,3.4-7.5,7.5v34c0,4.1,3.4,7.5,7.5,7.5h9.5v14.5
			c0,4.1,3.4,7.5,7.5,7.5h38c4.1,0,7.5-3.4,7.5-7.5v-38C292,779.2,288.6,775.8,284.5,775.8z M239,783.3v8.5h-2v-19h19v3h-9.5
			C242.4,775.8,239,779.2,239,783.3z M277,813.8h-23v-23h23V813.8z"/>
	</g>
</g>
<g>
	<g>
		
			<linearGradient id="SVGID_9_" gradientUnits="userSpaceOnUse" x1="-39.5" y1="368.38" x2="3.5" y2="368.38" gradientTransform="matrix(1 0 0 -1 0 841.67)">
			<stop  offset="0" style="stop-color:#F5574B"/>
			<stop  offset="1" style="stop-color:#FFA05C"/>
		</linearGradient>
		<path class="st8" d="M-4,451.8h-28c-4.1,0-7.5,3.4-7.5,7.5v28c0,4.1,3.4,7.5,7.5,7.5h28c4.1,0,7.5-3.4,7.5-7.5v-28
			C3.5,455.2,0.1,451.8-4,451.8z M-11.5,479.8h-13v-13h13V479.8z"/>
	</g>
</g>
<g>
	<g>
		
			<linearGradient id="SVGID_10_" gradientUnits="userSpaceOnUse" x1="391" y1="195.38" x2="426" y2="195.38" gradientTransform="matrix(1 0 0 -1 0 841.67)">
			<stop  offset="0" style="stop-color:#F5574B"/>
			<stop  offset="1" style="stop-color:#FFA05C"/>
		</linearGradient>
		<path class="st9" d="M408.5,621.8c-9.6,0-17.5,7.9-17.5,17.5v14c0,9.6,7.9,17.5,17.5,17.5s17.5-7.9,17.5-17.5v-14
			C426,629.7,418.1,621.8,408.5,621.8z M411,653.3c0,1.4-1.1,2.5-2.5,2.5s-2.5-1.1-2.5-2.5v-14c0-1.4,1.1-2.5,2.5-2.5
			s2.5,1.1,2.5,2.5V653.3z"/>
	</g>
</g>
<g>
	<g>
		
			<linearGradient id="SVGID_11_" gradientUnits="userSpaceOnUse" x1="401" y1="143.38" x2="416" y2="143.38" gradientTransform="matrix(1 0 0 -1 0 841.67)">
			<stop  offset="0" style="stop-color:#F5574B"/>
			<stop  offset="1" style="stop-color:#FFA05C"/>
		</linearGradient>
		<path class="st10" d="M408.5,678.8c-4.1,0-7.5,3.4-7.5,7.5v24c0,4.1,3.4,7.5,7.5,7.5s7.5-3.4,7.5-7.5v-24
			C416,682.2,412.6,678.8,408.5,678.8z"/>
	</g>
</g>
<g>
	<g>
		
			<linearGradient id="SVGID_12_" gradientUnits="userSpaceOnUse" x1="391" y1="91.38" x2="426" y2="91.38" gradientTransform="matrix(1 0 0 -1 0 841.67)">
			<stop  offset="0" style="stop-color:#F5574B"/>
			<stop  offset="1" style="stop-color:#FFA05C"/>
		</linearGradient>
		<path class="st11" d="M408.5,725.8c-9.6,0-17.5,7.9-17.5,17.5v14c0,9.6,7.9,17.5,17.5,17.5s17.5-7.9,17.5-17.5v-14
			C426,733.7,418.1,725.8,408.5,725.8z M411,757.3c0,1.4-1.1,2.5-2.5,2.5s-2.5-1.1-2.5-2.5v-14c0-1.4,1.1-2.5,2.5-2.5
			s2.5,1.1,2.5,2.5V757.3z"/>
	</g>
</g>
<g>
	<g>
		
			<linearGradient id="SVGID_13_" gradientUnits="userSpaceOnUse" x1="401" y1="39.38" x2="416" y2="39.38" gradientTransform="matrix(1 0 0 -1 0 841.67)">
			<stop  offset="0" style="stop-color:#F5574B"/>
			<stop  offset="1" style="stop-color:#FFA05C"/>
		</linearGradient>
		<path class="st12" d="M408.5,782.8c-4.1,0-7.5,3.4-7.5,7.5v24c0,4.1,3.4,7.5,7.5,7.5s7.5-3.4,7.5-7.5v-24
			C416,786.2,412.6,782.8,408.5,782.8z"/>
	</g>
</g>
<g>
	<g>
		
			<linearGradient id="SVGID_14_" gradientUnits="userSpaceOnUse" x1="358" y1="194.38" x2="373" y2="194.38" gradientTransform="matrix(1 0 0 -1 0 841.67)">
			<stop  offset="0" style="stop-color:#F5574B"/>
			<stop  offset="1" style="stop-color:#FFA05C"/>
		</linearGradient>
		<path class="st13" d="M365.5,627.8c-4.1,0-7.5,3.4-7.5,7.5v24c0,4.1,3.4,7.5,7.5,7.5s7.5-3.4,7.5-7.5v-24
			C373,631.2,369.6,627.8,365.5,627.8z"/>
	</g>
</g>
<g>
	<g>
		
			<linearGradient id="SVGID_15_" gradientUnits="userSpaceOnUse" x1="348" y1="142.38" x2="383" y2="142.38" gradientTransform="matrix(1 0 0 -1 0 841.67)">
			<stop  offset="0" style="stop-color:#F5574B"/>
			<stop  offset="1" style="stop-color:#FFA05C"/>
		</linearGradient>
		<path class="st14" d="M365.5,674.8c-9.6,0-17.5,7.9-17.5,17.5v14c0,9.6,7.9,17.5,17.5,17.5s17.5-7.9,17.5-17.5v-14
			C383,682.7,375.1,674.8,365.5,674.8z M368,706.3c0,1.4-1.1,2.5-2.5,2.5s-2.5-1.1-2.5-2.5v-14c0-1.4,1.1-2.5,2.5-2.5
			s2.5,1.1,2.5,2.5V706.3z"/>
	</g>
</g>
<g>
	<g>
		
			<linearGradient id="SVGID_16_" gradientUnits="userSpaceOnUse" x1="348" y1="39.38" x2="383" y2="39.38" gradientTransform="matrix(1 0 0 -1 0 841.67)">
			<stop  offset="0" style="stop-color:#F5574B"/>
			<stop  offset="1" style="stop-color:#FFA05C"/>
		</linearGradient>
		<path class="st15" d="M365.5,777.8c-9.6,0-17.5,7.9-17.5,17.5v14c0,9.6,7.9,17.5,17.5,17.5s17.5-7.9,17.5-17.5v-14
			C383,785.7,375.1,777.8,365.5,777.8z M368,809.3c0,1.4-1.1,2.5-2.5,2.5s-2.5-1.1-2.5-2.5v-14c0-1.4,1.1-2.5,2.5-2.5
			s2.5,1.1,2.5,2.5V809.3z"/>
	</g>
</g>
<g>
	<g>
		
			<linearGradient id="SVGID_17_" gradientUnits="userSpaceOnUse" x1="358" y1="90.38" x2="373" y2="90.38" gradientTransform="matrix(1 0 0 -1 0 841.67)">
			<stop  offset="0" style="stop-color:#F5574B"/>
			<stop  offset="1" style="stop-color:#FFA05C"/>
		</linearGradient>
		<path class="st16" d="M365.5,731.8c-4.1,0-7.5,3.4-7.5,7.5v24c0,4.1,3.4,7.5,7.5,7.5s7.5-3.4,7.5-7.5v-24
			C373,735.2,369.6,731.8,365.5,731.8z"/>
	</g>
</g>
<g>
	<g>
		
			<linearGradient id="SVGID_18_" gradientUnits="userSpaceOnUse" x1="311.025" y1="449.33" x2="429.9879" y2="449.33" gradientTransform="matrix(1 0 0 -1 0 841.67)">
			<stop  offset="0" style="stop-color:#F5574B"/>
			<stop  offset="1" style="stop-color:#FFA05C"/>
		</linearGradient>
		<path class="st17" d="M429,387.1l-14.8-25.5c-1.3-2.3-3.8-3.8-6.5-3.8h-27.4l-11.1-19.3c-1.3-2.3-3.8-3.8-6.5-3.8h-29.5
			c-2.7,0-5.2,1.4-6.5,3.8L312,364.1c-1.3,2.3-1.3,5.2,0,7.5l12,20.8l-12,20.8c-1.3,2.3-1.3,5.2,0,7.5l14.8,25.5
			c1.3,2.3,3.8,3.8,6.5,3.8h29.5c2.7,0,5.2-1.4,6.5-3.8l12.8-22.3h25.7c2.7,0,5.2-1.4,6.5-3.8l14.8-25.5
			C430.3,392.2,430.3,389.4,429,387.1z M337.6,349.8h20.8l10.1,17.4l-9.6,16.6h-22.5l-9.2-16L337.6,349.8z M358.4,434.9h-20.8
			l-10.4-18l9.2-16h23.3l9.2,16L358.4,434.9z M403.4,408.9h-20.8l-10.1-17.4l10.8-18.7h20.1l10.4,18L403.4,408.9z"/>
	</g>
</g>
<g>
	<g>
		
			<linearGradient id="SVGID_19_" gradientUnits="userSpaceOnUse" x1="-18" y1="251.68" x2="351" y2="251.68" gradientTransform="matrix(1 0 0 -1 0 841.67)">
			<stop  offset="0" style="stop-color:#F5574B"/>
			<stop  offset="1" style="stop-color:#FFA05C"/>
		</linearGradient>
		<path class="st18" d="M207,445.8l-32.1-0.5l0,0c-0.3,0-0.6,0-0.8,0c-34.6,0-68.1,12.4-94.3,35c-25.3,21.8-42.3,51.8-48,84.5H15.5
			c-4.1,0-7.5,3.4-7.5,7.5v32.5h-18.5c-4.1,0-7.5,3.4-7.5,7.5v52c0,4.1,3.4,7.5,7.5,7.5h52c4.1,0,7.5-3.4,7.5-7.5v-2
			c10.7,18.5,25.4,34.3,43.2,46.6c24.1,16.6,52.4,25.3,81.8,25.3c0.9,0,1.8,0,2.7,0l0,0l29.8,0.5c79.7,0,144.5-64.8,144.5-144.5
			C351,510.8,286.4,446.1,207,445.8z M34,656.8H-3v-37h37V656.8z M41.5,604.8H23v-25h51v51H49v-18.5C49,608.2,45.6,604.8,41.5,604.8
			z M179,719.2c-52.3,2-99.6-27-121.8-73.4h15.2c20.5,37,59.2,60,101.6,60c55.2,0,101.5-38.7,113.2-90.4c1-4.6-2.5-9-7.3-9
			c-0.1,0-0.1,0-0.2,0c-3.4,0-6.4,2.4-7.2,5.8c-10.2,45-50.5,78.6-98.5,78.6c-35.4,0-67.9-18.4-86.2-48.4c0.8-1.2,1.2-2.6,1.2-4.1
			v-66c0-4.1-3.4-7.5-7.5-7.5h-5.4c11.3-44.4,51.4-76,97.9-76c48.5,0,89,34.3,98.8,79.9c0.7,3.4,3.7,5.8,7.2,5.9c0.1,0,0.1,0,0.2,0
			c4.7,0.1,8.3-4.3,7.3-8.9c-11.1-52.4-57.8-91.9-113.5-91.9c-54.7,0-101.7,38-113.3,91H46.9C58.7,504,111.4,460.3,174,460.3
			c71.5,0,129.6,58.2,129.5,129.7C303.4,659.3,248.2,716.6,179,719.2z M251.4,711.8c40.3-25.7,67.1-70.7,67.1-122
			c0-49.6-25.1-93.5-63.4-119.5c47.4,19.3,80.9,65.8,80.9,120C336,645.9,300.7,693.5,251.4,711.8z"/>
	</g>
</g>
</svg>
