<?xml version="1.0" encoding="utf-8"?>
<!-- Generator: Adobe Illustrator 19.0.1, SVG Export Plug-In . SVG Version: 6.00 Build 0)  -->
<svg version="1.1" id="Capa_1" xmlns="http://www.w3.org/2000/svg" xmlns:xlink="http://www.w3.org/1999/xlink" x="0px" y="0px"
	 viewBox="148.5 163.4 509 453.9" style="enable-background:new 148.5 163.4 509 453.9;" xml:space="preserve">
<style type="text/css">
	.st0{fill:url(#SVGID_1_);}
	.st1{fill:url(#SVGID_2_);}
	.st2{fill:url(#SVGID_3_);}
	.st3{fill:url(#SVGID_4_);}
	.st4{fill:url(#SVGID_5_);}
	.st5{fill:url(#SVGID_6_);}
	.st6{fill:url(#SVGID_7_);}
</style>
<g>
	<g>
		<g>
			
				<linearGradient id="SVGID_1_" gradientUnits="userSpaceOnUse" x1="148.4999" y1="519.98" x2="657.5" y2="519.98" gradientTransform="matrix(1 0 0 -1 0 843.8701)">
				<stop  offset="0" style="stop-color:#F5574B"/>
				<stop  offset="1" style="stop-color:#FFA05C"/>
			</linearGradient>
			<path class="st0" d="M657.5,397.9c0,47.7-38.8,86.5-86.5,86.5c-4.7,0-8.5-3.8-8.5-8.5s3.8-8.5,8.5-8.5
				c38.3,0,69.5-31.2,69.5-69.5s-31.2-69.5-69.5-69.5c-8.8,0-17.5,1.6-25.7,4.9c-2.6,1.1-5.6,0.7-7.9-0.9c-2.3-1.6-3.7-4.3-3.7-7.1
				v-0.8v-0.6c0-79.1-64.4-143.5-143.5-143.5c-74.9,0-136.3,56.1-142.9,130.5l-0.1,1.4l1.4,0.2c12.3,2,24.3,6.6,34.6,13.5
				c3.9,2.6,4.9,7.9,2.3,11.8c-1.6,2.4-4.2,3.8-7.1,3.8c-1.7,0-3.3-0.5-4.7-1.4c-9.9-6.6-21.4-10.6-33.3-11.5c-0.4,0-2-0.1-2.4-0.1
				c-1,0-2-0.1-3-0.1c-38.3,0-69.5,31.2-69.5,69.5s31.2,69.4,69.5,69.4c4.7,0,8.5,3.8,8.5,8.5s-3.8,8.5-8.5,8.5
				c-47.7,0-86.5-38.8-86.5-86.5c0-45.3,35.3-83.2,80.4-86.3l1.3-0.1l0.1-1.3c3.2-38.2,20.2-74.2,47.8-101.1
				c30.2-29.4,70-45.7,112.1-45.7c83.7,0,154,65.3,160.1,148.7l0.1,1.7l1.7-0.4c6.1-1.4,12.5-2.1,18.9-2.1
				C618.7,311.4,657.5,350.2,657.5,397.9z"/>
		</g>
	</g>
</g>
<g>
	<g>
		<g>
			
				<linearGradient id="SVGID_2_" gradientUnits="userSpaceOnUse" x1="381.7" y1="602.63" x2="484.6014" y2="602.63" gradientTransform="matrix(1 0 0 -1 0 843.8701)">
				<stop  offset="0" style="stop-color:#F5574B"/>
				<stop  offset="1" style="stop-color:#FFA05C"/>
			</linearGradient>
			<path class="st1" d="M481,270.4c-1.5,1-3.1,1.6-4.9,1.6c-2.8,0-5.4-1.3-7-3.6c-18.1-25.6-47.6-40.9-78.9-40.9
				c-4.7,0-8.5-3.8-8.5-8.5c0-4.7,3.8-8.5,8.5-8.5c18.4,0,36.3,4.5,52.2,12.8c15.9,8.3,29.9,20.3,40.6,35.4
				C485.8,262.4,484.8,267.7,481,270.4z"/>
		</g>
	</g>
</g>
<g>
	<g>
		<g>
			
				<linearGradient id="SVGID_3_" gradientUnits="userSpaceOnUse" x1="483.7607" y1="545.13" x2="500.7974" y2="545.13" gradientTransform="matrix(1 0 0 -1 0 843.8701)">
				<stop  offset="0" style="stop-color:#F5574B"/>
				<stop  offset="1" style="stop-color:#FFA05C"/>
			</linearGradient>
			<path class="st2" d="M494.2,307.1c-0.6,0.2-1.3,0.2-1.9,0.2c-3.9,0-7.3-2.7-8.3-6.5c-1.1-4.5,1.7-9.1,6.2-10.3
				c0.7-0.2,1.4-0.3,2.1-0.3c3.8,0,7.3,2.6,8.3,6.4v0.2C501.6,301.5,498.7,306,494.2,307.1z"/>
		</g>
	</g>
</g>
<g>
	<g>
		<g>
			
				<linearGradient id="SVGID_4_" gradientUnits="userSpaceOnUse" x1="362.5" y1="385.93" x2="441.5" y2="385.93" gradientTransform="matrix(1 0 0 -1 0 843.8701)">
				<stop  offset="0" style="stop-color:#F5574B"/>
				<stop  offset="1" style="stop-color:#FFA05C"/>
			</linearGradient>
			<path class="st3" d="M432.1,458l1-1c5.4-5.7,8.4-13.1,8.4-21c0-16.5-12.9-29.8-29.3-30.5h-1.4v-4.8c0-4.7-3.8-8.5-8.5-8.5
				s-8.5,3.8-8.5,8.5v4.8H371c-4.7,0-8.5,3.8-8.5,8.5c0,4.7,3.8,8.5,8.5,8.5h1.6v71H371c-4.7,0-8.5,3.8-8.5,8.5s3.8,8.5,8.5,8.5
				h22.6v4.7c0,4.7,3.8,8.5,8.5,8.5s8.5-3.8,8.5-8.5v-4.7l1.4-0.1c16.4-0.6,29.3-14,29.3-30.5c0-7.8-3-15.3-8.4-21L432.1,458z
				 M410.9,493.5h-21.3v-27h21.3c7.4,0,13.5,6,13.5,13.5C424.4,487.4,418.4,493.5,410.9,493.5z M410.9,449.5h-21.3v-27h21.3
				c7.4,0,13.5,6.1,13.5,13.5S418.4,449.5,410.9,449.5z"/>
		</g>
	</g>
</g>
<g>
	<g>
		<g>
			
				<linearGradient id="SVGID_5_" gradientUnits="userSpaceOnUse" x1="310.336" y1="385.9175" x2="495.5" y2="385.9175" gradientTransform="matrix(1 0 0 -1 0 843.8701)">
				<stop  offset="0" style="stop-color:#F5574B"/>
				<stop  offset="1" style="stop-color:#FFA05C"/>
			</linearGradient>
			<path class="st4" d="M495.5,457.9c0,24.7-9.6,47.9-27.1,65.4c-17.5,17.5-40.7,27.1-65.4,27.1c-9.2,0-18.4-1.4-27.3-4.1
				c-4.5-1.4-7-6.1-5.6-10.6c0.7-2.2,2.1-4,4.1-5c1.3-0.7,2.6-1,4-1c0.8,0,1.7,0.1,2.5,0.4c26.8,8.2,55.8,1,75.6-18.8
				c14.3-14.3,22.1-33.2,22.1-53.4s-7.9-39.1-22.1-53.4c-29.4-29.4-77.3-29.4-106.8,0c-19.5,19.5-26.8,48-19.1,74.5
				c0.6,2.2,0.4,4.5-0.7,6.5s-2.9,3.4-5.1,4.1c-2.2,0.6-4.5,0.4-6.5-0.7s-3.4-2.9-4.1-5.1c-9.4-32.4-0.4-67.4,23.4-91.2
				c36.1-36.1,94.7-36.1,130.8,0C485.9,410,495.5,433.2,495.5,457.9z"/>
		</g>
	</g>
</g>
<g>
	<g>
		<g>
			
				<linearGradient id="SVGID_6_" gradientUnits="userSpaceOnUse" x1="334.9744" y1="326.53" x2="352.0626" y2="326.53" gradientTransform="matrix(1 0 0 -1 0 843.8701)">
				<stop  offset="0" style="stop-color:#F5574B"/>
				<stop  offset="1" style="stop-color:#FFA05C"/>
			</linearGradient>
			<path class="st5" d="M349.5,523.4c-1.6,1.6-3.7,2.4-6,2.4s-4.5-0.9-6.1-2.5c-3.3-3.3-3.2-8.7,0.1-12c1.7-1.6,3.8-2.4,6-2.4
				s4.4,0.8,6.1,2.5C352.9,514.7,352.9,520.1,349.5,523.4z"/>
		</g>
	</g>
</g>
<g>
	<g>
		<g>
			
				<linearGradient id="SVGID_7_" gradientUnits="userSpaceOnUse" x1="271.4" y1="382.38" x2="534.404" y2="382.38" gradientTransform="matrix(1 0 0 -1 0 843.8701)">
				<stop  offset="0" style="stop-color:#F5574B"/>
				<stop  offset="1" style="stop-color:#FFA05C"/>
			</linearGradient>
			<path class="st6" d="M529.8,368.1l-123-62.5c-1.2-0.6-2.5-0.9-3.9-0.9s-2.6,0.3-3.8,0.9l-123,62.5c-2.9,1.5-4.7,4.4-4.7,7.6
				v112.9c0,48.5,31.6,73.7,65.7,93.8c30.9,18.2,61.4,34.8,61.7,34.9c1.3,0.7,2.6,1,4.1,1s2.9-0.4,4.1-1
				c0.3-0.2,30.9-16.8,61.7-34.9c34.1-20.1,65.7-45.3,65.7-93.8V375.7C534.5,372.5,532.7,369.6,529.8,368.1z M517.5,488.6
				c0,37.8-21.9,58.3-57.3,79.2c-23.6,13.9-47.4,27-56.5,32l-0.7,0.4l-0.7-0.4c-9.1-5-32.9-18.2-56.5-32
				c-35.4-20.8-57.3-41.3-57.3-79.2V380.9L403,322.8l114.5,58.1V488.6z"/>
		</g>
	</g>
</g>
</svg>
