<?xml version="1.0" encoding="utf-8"?>
<!-- Generator: Adobe Illustrator 19.0.1, SVG Export Plug-In . SVG Version: 6.00 Build 0)  -->
<svg version="1.1" id="Capa_1" xmlns="http://www.w3.org/2000/svg" xmlns:xlink="http://www.w3.org/1999/xlink" x="0px" y="0px"
	 viewBox="-268 391.9 57.9 57.9" style="enable-background:new -268 391.9 57.9 57.9;" xml:space="preserve">
<style type="text/css">
	.st0{fill:url(#SVGID_1_);}
</style>
<linearGradient id="SVGID_1_" gradientUnits="userSpaceOnUse" x1="-267.9978" y1="420.9177" x2="-210.056" y2="420.9177">
	<stop  offset="0" style="stop-color:#D7645B"/>
	<stop  offset="1" style="stop-color:#FFA05C"/>
</linearGradient>
<path class="st0" d="M-217.8,401.1l2-2c0.4-0.4,0.4-1,0-1.4c-0.4-0.4-1-0.4-1.4,0l-2,2c-10-9.3-25.3-10.4-36.5-2.5
	c-2-1.8-5-1.7-6.9,0.2c-1.9,1.9-1.9,4.9-0.2,6.9c-8,11.4-6.7,27.2,3.2,37.2c5.7,5.7,13.1,8.5,20.5,8.5c7.4,0,14.9-2.8,20.5-8.5
	C-207.5,430.3-207.2,412.5-217.8,401.1z M-261.2,398.8c0.6-0.6,1.3-0.9,2.1-0.9s1.6,0.3,2.1,0.9c0.1,0.1,0.1,0.2,0.2,0.3l0.1,0.1
	c0.3,0.4,0.5,1,0.6,1.5c0,0,0,0,0,0c0,0.2,0,0.3,0,0.5c0,0,0,0,0,0c0,0.2,0,0.3-0.1,0.5c0,0,0,0.1,0,0.1c0,0.1-0.1,0.3-0.1,0.4
	c0,0.1-0.1,0.1-0.1,0.2c0,0.1-0.1,0.2-0.2,0.3c-0.1,0.2-0.2,0.3-0.4,0.4c-0.1,0.1-0.3,0.3-0.5,0.4c0,0,0,0,0,0
	c-0.6,0.4-1.4,0.5-2.2,0.4c0,0,0,0-0.1,0c-0.1,0-0.3-0.1-0.4-0.1c-0.1,0-0.2-0.1-0.2-0.1c-0.1,0-0.1-0.1-0.2-0.1
	c-0.1-0.1-0.3-0.1-0.4-0.2l0,0c-0.1-0.1-0.2-0.2-0.3-0.3C-262.3,401.9-262.3,400-261.2,398.8z M-219.9,440
	c-10.5,10.5-27.7,10.5-38.2,0c-9.2-9.2-10.5-24-3-34.6c0.2,0.1,0.4,0.2,0.7,0.2c0,0,0.1,0,0.1,0c0.2,0.1,0.4,0.1,0.7,0.1
	c0,0,0.1,0,0.1,0c0.2,0,0.4,0.1,0.6,0.1c0.5,0,0.9-0.1,1.4-0.2c0.1,0,0.2-0.1,0.3-0.1c0.2-0.1,0.3-0.1,0.5-0.2
	c0.1-0.1,0.3-0.1,0.4-0.2c0.1-0.1,0.2-0.1,0.3-0.2c0.2-0.2,0.5-0.3,0.7-0.6c0.2-0.2,0.4-0.5,0.6-0.7c0.1-0.1,0.1-0.2,0.2-0.3
	c0.1-0.2,0.2-0.3,0.2-0.5c0.1-0.1,0.1-0.3,0.2-0.4c0-0.1,0.1-0.2,0.1-0.4c0.2-0.6,0.2-1.2,0.1-1.9c0-0.1,0-0.1,0-0.2
	c0-0.2-0.1-0.4-0.1-0.6c0-0.1,0-0.1-0.1-0.2c-0.1-0.2-0.1-0.4-0.2-0.6c0,0,0,0,0,0c10.4-7.3,24.6-6.3,33.8,2.3l-3.5,3.5
	c-8.6-7.9-22-7.7-30.4,0.7c-8.6,8.6-8.6,22.5,0,31.1c4.3,4.3,9.9,6.4,15.6,6.4c5.6,0,11.3-2.1,15.6-6.4c3.5-3.5,5.6-8,6.2-12.9
	c0.8-0.2,1.6-0.6,2.2-1.3c1.9-1.9,1.9-5.1,0-7.1c-0.9-0.9-2.1-1.4-3.2-1.4c-1-2.9-2.5-5.5-4.6-7.7l3.5-3.5
	C-209.4,413.1-209.7,429.7-219.9,440z M-218.5,415.8c0.8,0,1.5,0.3,2.1,0.9c1.2,1.2,1.2,3.1,0,4.2c-0.4,0.4-1,0.7-1.5,0.8l-0.3,0
	c-0.4,0-0.9,0-1.3-0.1c0,0,0,0,0,0c-0.2-0.1-0.4-0.2-0.5-0.3c0,0,0,0-0.1,0c-0.2-0.1-0.4-0.2-0.5-0.4c-1.2-1.2-1.2-3.1,0-4.2
	c0.6-0.6,1.3-0.8,1.8-0.8L-218.5,415.8C-218.5,415.8-218.5,415.8-218.5,415.8z M-220.3,414.1c-0.3,0.1-0.5,0.2-0.8,0.4
	c-0.1,0-0.1,0.1-0.2,0.1c-0.3,0.2-0.6,0.4-0.8,0.7c-1.9,1.9-1.9,5.1,0,7.1c0.2,0.2,0.5,0.4,0.7,0.6c0.1,0.1,0.2,0.1,0.3,0.2
	c0.2,0.1,0.3,0.2,0.5,0.2c0.1,0.1,0.3,0.1,0.4,0.2c0.1,0,0.2,0.1,0.4,0.1c0.2,0,0.3,0.1,0.5,0.1c0,0,0,0,0,0
	c-0.6,4.3-2.6,8.3-5.6,11.3c-7.8,7.8-20.5,7.8-28.3,0c-7.8-7.8-7.8-20.5,0-28.3c3.9-3.9,9-5.8,14.1-5.8c4.8,0,9.6,1.7,13.4,5.2
	l-4.2,4.2c-2.5-2.2-5.8-3.4-9.2-3.4c-3.7,0-7.3,1.5-9.9,4.1c-2.6,2.6-4.1,6.2-4.1,9.9s1.5,7.3,4.1,9.9c2.6,2.6,6.2,4.1,9.9,4.1
	c3.7,0,7.3-1.5,9.9-4.1c2.6-2.6,4.1-6.2,4.1-9.9c0-3.4-1.2-6.6-3.4-9.2l4.2-4.2C-222.5,409.4-221.1,411.7-220.3,414.1
	C-220.3,414.1-220.3,414.1-220.3,414.1z M-239.7,421.6c0.2,0.2,0.5,0.3,0.7,0.3c0.3,0,0.5-0.1,0.7-0.3l8.5-8.5
	c1.8,2.2,2.8,4.9,2.8,7.7c0,3.2-1.2,6.2-3.5,8.5c-2.3,2.3-5.3,3.5-8.5,3.5c-3.2,0-6.2-1.2-8.5-3.5c-2.3-2.3-3.5-5.3-3.5-8.5
	s1.2-6.2,3.5-8.5c2.3-2.3,5.3-3.5,8.5-3.5c2.9,0,5.6,1,7.7,2.8l-8.5,8.5C-240.1,420.6-240.1,421.2-239.7,421.6z"/>
</svg>
