<?xml version="1.0" encoding="utf-8"?>
<!-- Generator: Adobe Illustrator 19.0.1, SVG Export Plug-In . SVG Version: 6.00 Build 0)  -->
<svg version="1.1" id="Layer_1" xmlns="http://www.w3.org/2000/svg" xmlns:xlink="http://www.w3.org/1999/xlink" x="0px" y="0px"
	 viewBox="-41 164.9 512 512" style="enable-background:new -41 164.9 512 512;" xml:space="preserve">
<style type="text/css">
	.st0{fill:url(#SVGID_1_);}
	.st1{fill:url(#SVGID_2_);}
	.st2{fill:url(#SVGID_3_);}
</style>
<g>
	<g>
		<linearGradient id="SVGID_1_" gradientUnits="userSpaceOnUse" x1="-40.9997" y1="420.8893" x2="471.002" y2="420.8893">
			<stop  offset="0" style="stop-color:#F5574B"/>
			<stop  offset="1" style="stop-color:#FFA05C"/>
		</linearGradient>
		<path class="st0" d="M468.6,336l-99.3-99.3c-3.2-3.2-8.4-3.2-11.6,0l-49.6,49.6c-1.5,1.5-2.4,3.6-2.4,5.8s0.9,4.2,2.4,5.8l5,5
			l-11.4,11.4c-7.4,7.4-18.9,9.4-28.5,5c-9.1-4.1-19.2-6.3-29.2-6.3c-11.9,0-23.5,3-33.8,8.6c-4.3-1.1-8.7-1.6-13.2-1.6
			c-6.4,0-12.8,1.1-18.8,3.3c-9.7,3.5-20,1.3-27-5.7l-20.4-20.4l2.4-2.4c1.5-1.5,2.4-3.6,2.4-5.8s-0.9-4.2-2.4-5.8l-49.7-49.7
			c-3.2-3.2-8.4-3.2-11.6,0L-38.6,344c-3.2,3.2-3.2,8.4,0,11.6L11,405.3c1.5,1.5,3.6,2.4,5.8,2.4s4.2-0.9,5.8-2.4l3-3L40,416.7
			c3.6,3.6,6,8.2,7,13.1c4.8,25.7,17.1,49,35.6,67.5l2.7,2.7c-5.2,5.5-8.1,12.6-8.1,20.2c0,7.9,3.1,15.3,8.6,20.8
			c5.7,5.7,13.3,8.6,20.8,8.6c0.5,0,1,0,1.5,0c-0.4,8,2.5,16.2,8.6,22.3c5.6,5.6,12.9,8.6,20.8,8.6c0.2,0,0.4,0,0.7,0
			c-0.2,7.7,2.7,15.6,8.6,21.5c5.6,5.6,12.9,8.6,20.8,8.6c7.9,0,15.3-3.1,20.8-8.6c0.5-0.5,0.9-1,1.3-1.4c2.9,1,6,1.5,9.1,1.5
			c7.4,0,14.3-2.9,19.4-8.1c2.8-2.8,4.8-6,6.2-9.5l0.8,0.8c5.4,5.4,12.4,8,19.4,8s14.1-2.7,19.4-8c2.8-2.8,5-6.2,6.3-9.9
			c4.8,3.5,10.5,5.2,16.2,5.2c7,0,14.1-2.7,19.4-8c5.2-5.2,8-12.1,8-19.4c0-2.2-0.3-4.4-0.8-6.5c5.2-1.1,10-3.6,13.9-7.5
			c5.2-5.2,8-12.1,8-19.4c0-5.8-1.8-11.3-5.1-15.9l6.6-6.6c18.7-18.7,31.1-42.4,35.7-68.4c0.8-4.4,2.9-8.4,6.2-11.7l24.4-24.4
			l4.3,4.3c1.6,1.6,3.7,2.4,5.8,2.4c2.1,0,4.2-0.8,5.8-2.4l49.6-49.6c1.5-1.5,2.4-3.6,2.4-5.8C471,339.6,470.1,337.5,468.6,336z
			 M16.8,387.9l-38.1-38.1l99-99l38.1,38.1L16.8,387.9z M115.8,529.6c-5.1,5.1-13.4,5.1-18.5,0c-2.5-2.5-3.8-5.8-3.8-9.2
			c0-3.5,1.4-6.8,3.8-9.2c2.5-2.5,5.9-3.8,9.2-3.8c3.3,0,6.7,1.3,9.2,3.8C120.9,516.2,120.9,524.5,115.8,529.6z M146.7,560.4
			c-2.5,2.5-5.8,3.8-9.2,3.8c-3.5,0-6.8-1.4-9.2-3.8c-5.1-5.1-5.1-13.4,0-18.5c2.5-2.5,5.9-3.8,9.2-3.8c3.3,0,6.7,1.3,9.2,3.8
			C151.8,547,151.8,555.3,146.7,560.4z M176.7,590.5c-2.5,2.5-5.8,3.8-9.2,3.8c-3.5,0-6.8-1.4-9.2-3.8c-5.1-5.1-5.1-13.4,0-18.5
			c2.5-2.5,5.9-3.8,9.2-3.8c3.3,0,6.7,1.3,9.2,3.8C181.8,577.1,181.8,585.4,176.7,590.5z M315.6,527.7c-2.1,2.1-4.9,3.3-7.9,3.3
			s-5.8-1.2-7.9-3.3l-79.3-79.3c-3.2-3.2-8.4-3.2-11.6,0c-3.2,3.2-3.2,8.4,0,11.6l85.5,85.4c2.1,2.1,3.3,4.9,3.3,7.9
			c0,3-1.2,5.8-3.3,7.9c-4.3,4.3-11.4,4.3-15.8,0l-14.4-14.4c-0.1-0.1-0.2-0.2-0.2-0.2c0,0-0.1,0-0.1-0.1l-66.3-66.3
			c-3.2-3.2-8.4-3.2-11.6,0s-3.2,8.4,0,11.6l66.5,66.5c2,2.1,3.2,4.8,3.2,7.8c0,3-1.2,5.8-3.3,7.9c-4.3,4.3-11.4,4.3-15.7,0
			l-72.1-72.1c-3.2-3.2-8.4-3.2-11.6,0c-3.2,3.2-3.2,8.4,0,11.6l53.4,53.4c0,0,0,0,0,0c2.1,2.1,3.3,4.9,3.3,7.9c0,3-1.2,5.8-3.3,7.9
			c-2.1,2.1-4.9,3.3-7.9,3.3c-0.7,0-1.4-0.1-2.1-0.2c1.3-8.9-1.4-18.3-8.3-25.2c-5.6-5.6-12.9-8.6-20.8-8.6c-0.2,0-0.4,0-0.7,0
			c0.2-7.7-2.7-15.6-8.6-21.5c-5.6-5.6-12.9-8.6-20.8-8.6c-0.5,0-1,0-1.5,0c0.4-8-2.5-16.2-8.6-22.3c-7.4-7.4-17.9-10-27.4-7.8
			l-5.9-5.9c-16.1-16.1-26.9-36.5-31.1-59c-1.5-8.2-5.5-15.7-11.5-21.7l-14.4-14.4l82-82l20.4,20.4c7.9,7.9,18.6,12.1,29.5,12.1
			c4.9,0,9.9-0.8,14.6-2.6c2.3-0.8,4.7-1.4,7.1-1.8l-50.6,50.6c-6.2,6.2-9.6,14.4-9.6,23.2c0,8.8,3.4,17,9.6,23.2
			c6.4,6.4,14.8,9.6,23.2,9.6c8.4,0,16.8-3.2,23.2-9.6l25.4-25.4l6.9,6.9c0,0,0,0,0,0l0.3,0.3l0.3,0.3c0,0,0,0,0,0l0,0
			c0.1,0.1,0.2,0.2,0.2,0.2l95.9,95.9c2.1,2.1,3.3,4.9,3.3,7.9C318.9,522.8,317.7,525.6,315.6,527.7z M367.1,405.7
			c-5.7,5.7-9.4,12.7-10.8,20.4c-4.1,22.7-14.9,43.4-31.2,59.7l-6.3,6.3l-51.7-51.7c1.1,0.1,2.3,0.1,3.4,0.1
			c5.2,0,10.6-0.9,15.9-3.1c4.2-1.7,6.2-6.5,4.5-10.7c-1.7-4.2-6.5-6.2-10.7-4.5c-21,8.6-46.3-15.1-49.1-17.9c0,0-0.1-0.1-0.1-0.1
			l-0.3-0.3c0,0,0,0,0,0l-0.3-0.3c0,0,0,0,0,0l-6.9-6.9l7.8-7.8c3.2-3.2,3.2-8.4,0-11.6c-3.2-3.2-8.4-3.2-11.6,0L206.3,391
			c0,0,0,0,0,0s0,0,0,0l-31.2,31.2c-6.4,6.4-16.8,6.4-23.3,0c-3.1-3.1-4.8-7.2-4.8-11.6s1.7-8.5,4.8-11.6l53.9-53.9
			c3-3,6.3-5.6,9.9-7.8c8.5-5.3,18.3-8,28.4-8c7.7,0,15.4,1.7,22.4,4.8c15.8,7.2,34.7,3.8,46.9-8.3l11.4-11.4l66.9,66.9L367.1,405.7
			z M413.2,379.8l-87.7-87.7l38.1-38.1l87.7,87.7L413.2,379.8z"/>
	</g>
</g>
<g>
	<g>
		<linearGradient id="SVGID_2_" gradientUnits="userSpaceOnUse" x1="413.233" y1="347.997" x2="429.587" y2="347.997">
			<stop  offset="0" style="stop-color:#F5574B"/>
			<stop  offset="1" style="stop-color:#FFA05C"/>
		</linearGradient>
		<circle class="st1" cx="421.4" cy="348" r="8.2"/>
	</g>
</g>
<g>
	<g>
		<linearGradient id="SVGID_3_" gradientUnits="userSpaceOnUse" x1="4.39" y1="356.076" x2="20.744" y2="356.076">
			<stop  offset="0" style="stop-color:#F5574B"/>
			<stop  offset="1" style="stop-color:#FFA05C"/>
		</linearGradient>
		<circle class="st2" cx="12.6" cy="356.1" r="8.2"/>
	</g>
</g>
</svg>
