<?xml version="1.0" encoding="utf-8"?>
<!-- Generator: Adobe Illustrator 19.0.1, SVG Export Plug-In . SVG Version: 6.00 Build 0)  -->
<svg version="1.1" id="Слой_1" xmlns="http://www.w3.org/2000/svg" xmlns:xlink="http://www.w3.org/1999/xlink" x="0px" y="0px"
	 viewBox="-217 346.4 160.5 149.5" style="enable-background:new -217 346.4 160.5 149.5;" xml:space="preserve">
<style type="text/css">
	.st0{fill:url(#SVGID_1_);}
	.st1{fill:url(#SVGID_2_);}
	.st2{fill:url(#SVGID_3_);}
	.st3{fill:url(#SVGID_4_);}
	.st4{fill:url(#SVGID_5_);}
	.st5{fill:url(#SVGID_6_);}
</style>
<g>
	<g>
		<g>
			<g>
				<linearGradient id="SVGID_1_" gradientUnits="userSpaceOnUse" x1="-217.7418" y1="442.5223" x2="-54.0254" y2="442.5223">
					<stop  offset="0" style="stop-color:#F5574B"/>
					<stop  offset="1" style="stop-color:#FFA05C"/>
				</linearGradient>
				<path class="st0" d="M-54,444.7c-4.9-7.3-9.9-14.7-14.8-22l-0.3-0.4c-0.7-1.2-1-1.5-2.1-1.2l-1.5,0.5l0.2-1.6
					c1.2-8.7-0.8-15.9-6.4-22c-5.6-6.2-12.6-9.2-21.2-8.8c-6.5,0.3-12.1,2.7-16.9,7.3c-6.5,6.3-9.1,14.2-7.8,23.4l0.2,1.1h-9v-12.8
					h-6.5v-12.7h-30.3v12.8h-19.5v12.8h-3.9c-2.4,0-4.7,0-7.2,0c-0.6,0-0.9,0.1-1.2,0.7c-1.3,2.1-2.7,4.2-4.1,6.2l-0.8,1.2
					c-2.7,4-5.5,8-8.2,12.1l-2.4,3.5h14.9v51.1H-69v-51.2H-54L-54,444.7z M-117,403.5c3.2-5,8.4-8.5,14-9.5
					c12.2-2.2,23,4.9,25.8,16.9c0.4,2,0.3,4.1,0.2,6.2c0,0.7-0.1,1.4-0.1,2.1c0,0.9-1.1,1.8-1.8,1.9c-0.4,0.1-0.8,0.1-1.1,0.1
					c-0.2,0-0.5,0-0.7,0s-0.5,0-0.8,0h-1.2l0.3-1.3c0.9-3.7,0.6-6.3-1-8.6c-1.8-2.5-4.2-3.8-7.5-4h-0.7l-0.2-0.7
					c-0.6-2.5-1.8-4.4-3.7-5.6c-1.9-1.2-3.9-1.6-6-1.2c-1.2,0.3-2.9,0.6-4.1-0.7l-3.3,3l1,1.2l-1,1.9l-2.1-1.2l-3.3,3l1.2,1.5
					l-3.5,3.3l3,3.3l1.5-1.2l5.5,6l-1.5,0.5c-0.3,0.1-0.6,0.2-0.9,0.3c-0.7,0.3-1.3,0.5-2,0.5c-1.9,0.1-3.8,0.1-5.7,0h-2.9l-0.2-0.8
					C-121.4,414.7-120.4,408.6-117,403.5z M-100.5,418.9c0.8-0.7,1.5-1.3,2.2-2c1.6-1.4,3.1-2.8,4.6-4.1c1.6-1.4,3.5-1.5,5.3-0.3
					c1.6,1.1,2.3,2.8,1.8,4.8c-0.4,1.8-2.5,3.6-4.3,3.7c-1,0-2.1,0-3.2,0c-1.3,0-2.5,0-3.9,0c-0.4,0-0.8-0.1-1.2-0.2
					c-0.2-0.1-0.5-0.1-0.7-0.2l-1.9-0.4L-100.5,418.9z M-103.2,415.3l-0.7,0.7l-5-5.4l0.8-0.7c0.6-0.5,1.1-1,1.7-1.5
					c1.3-1.2,2.5-2.3,3.7-3.4c0.9-0.8,2-1.1,3-1.1c0.9,0.1,1.8,0.5,2.4,1.3c1.3,1.6,1.1,3.7-0.6,5.3c-1.2,1.1-2.4,2.2-3.6,3.3
					C-102.1,414.3-102.7,414.8-103.2,415.3z M-138.2,412.8v8h-21.1v-8H-138.2z M-165.8,400h21.1v8.1h-21.1V400z M-185.1,412.9h21.1
					v8h-21.1V412.9z M-203.4,440.3h-5.8l1-1.6c0.7-1,1.4-2,2-3c1.5-2.2,2.9-4.2,4.1-6.3c1.7-2.9,3.8-4.1,7.3-3.9
					c3.1,0.2,6.2,0.2,9.4,0.1c1.4,0,2.8,0,4.2,0h1.6l-0.7,1.4c-0.1,0.2-0.2,0.3-0.2,0.5c-0.1,0.3-0.3,0.6-0.5,0.8l-0.9,1.7
					c-1.9,2.9-3.9,5.9-6.1,8.8c-0.5,0.7-1.5,1.4-2.4,1.4c-3.1,0-6.3,0-9.4,0C-200.9,440.3-202.2,440.3-203.4,440.3z M-177.1,491.3
					h-21v-46.5h1c0.9,0,1.8,0,2.7,0c2.1,0,4.3,0,6.6,0.1c1.2,0,1.7-0.3,2.4-1.3c1.4-2.3,2.9-4.5,4.5-6.8c0.6-0.9,1.3-1.9,2-2.9
					l1.8-2.7v60.1H-177.1z M-73.6,491.3h-98.6V431l1.8,2.8c0.7,1,1.4,2,2,3c1.6,2.4,3.1,4.6,4.6,6.9c0.6,0.9,1,1.1,2.1,1.1l0,0
					c23.2,0,46.5,0,69.8-0.1h18.3v46.6H-73.6z M-81.3,440.3c-25.8,0-51.4,0-77.2,0l0,0c-1.4,0-2.3-0.5-3-1.6
					c-1.7-2.7-3.5-5.4-5.5-8.2l-3.2-4.8h24.4c23.7,0,47.5,0,71.2-0.1l0,0c1.3,0,2.5,0.2,3.6,1.9c1.7,2.7,3.4,5.3,5.4,8
					c0.7,1.1,1.5,2.1,2.2,3.3l1,1.5C-62.3,440.3-81.3,440.3-81.3,440.3z"/>
			</g>
			<g>
				<linearGradient id="SVGID_2_" gradientUnits="userSpaceOnUse" x1="-216.1259" y1="371.5623" x2="-94.7837" y2="371.5623">
					<stop  offset="0" style="stop-color:#F5574B"/>
					<stop  offset="1" style="stop-color:#FFA05C"/>
				</linearGradient>
				<path class="st1" d="M-94.8,371.1c-0.4-4.7-2.8-8.8-6.7-11.4c-3.8-2.6-8.6-3.3-13.2-2c-0.8,0.2-1.7,0-2.3-0.4
					c-0.8-0.5-1.6-1-2.3-1.5c-1.3-0.9-2.5-1.7-3.8-2.3c-2.9-1.4-6-2.7-8.9-4c-1.2-0.5-2.5-1.1-3.7-1.6c-5.8-2.5-11-2-16.1,1.6
					c-1.6,1.2-3.3,2.3-4.9,3.5c-2.6,1.9-5.4,3.8-8.1,5.7c-2.3,1.7-4.8,2.5-7.7,2.5h-0.1c-1.8,0-3.6,0-5.6,0h-4.1c-0.3,0-0.6,0-1-0.1
					c-0.2,0-0.3,0-0.5-0.1l-0.9-0.1v-8.1h-31.3c0,0.1,0,0.3,0,0.4v11.4c0,10.6,0,21.2,0,31.8c0,0.2,0,0.4,0,0.4c0.1,0,0.3,0,0.6,0
					c7,0,13.9,0,20.9,0h9.4c0.1,0,0.3,0,0.4,0v-7.7h17.2c16.7,0,33.8,0,50.7,0c1.5,0,3.1-0.4,4.6-0.7c0.3-0.1,0.7-0.1,1-0.2
					c0.6-0.1,1.2-0.3,1.8-0.5c0.7-0.2,1.4-0.5,2.2-0.6C-99.9,385.5-94.2,378.3-94.8,371.1z M-189.4,391.9l-0.9,0.1
					c-0.1,0-0.3,0-0.4,0.1c-0.3,0-0.6,0.1-1,0.1c-3,0-6.2,0-9.2,0h-8.2h-0.2c-0.6,0-1.2,0-1.7-0.5c-0.4-0.4-0.6-0.9-0.6-1.7
					c0-7.3,0-14.5,0-21.8v-9.3c0-0.3,0-0.5,0.1-0.7c0-0.1,0-0.1,0-0.2l0.2-0.8h21.9V391.9z M-113.3,384c-0.8,0.3-1.7,0.4-2.7,0.4
					c-11.8,0-23.7,0-35.6,0H-182c-0.4,0-0.7,0-1.1-0.1c-0.2,0-0.3,0-0.5-0.1l-0.9-0.1v-18.3h1.7c0.5,0,1,0,1.5,0
					c1.3,0,2.5-0.1,3.8-0.1c3.1-0.1,6.4-0.1,9.4-0.5c1.9-0.3,3.8-1.5,5.7-2.7c3.5-2.3,7-4.8,10.4-7.2c1-0.7,1.9-1.4,2.9-2.1
					c3.6-2.5,7.5-3,11.4-1.2c1.7,0.8,3.4,1.5,5.2,2.3c2.8,1.3,5.7,2.5,8.6,3.8c0.8,0.4,1.5,0.8,2.1,1.1c0.2,0.1,0.4,0.3,0.6,0.4
					l0.8,0.5l-1.4,2.7c-0.9,1.8-1.8,3.5-2.7,5.2c-0.4,0.7-1.5,1.2-2.2,1.2c-2.7,0-5.6,0-8.3,0h-3.6v4.5h6.9c5.5,0,11,0,16.5,0
					c2.7,0,5,1.8,5.5,4.3C-109.6,380.7-110.9,383.1-113.3,384z M-103.8,380.5l-1.5,1v-1.8c0-3.5-1.3-6.3-3.8-8.4
					c-2.6-2.2-5.8-2.2-9.4-2.1l-1.7,0.1l0.7-1.5c2.1-4.3,6.2-6.6,10.9-6c4.2,0.5,8,3.9,9,8C-98.7,373.9-100.4,378.3-103.8,380.5z"/>
			</g>
			<g>
				<linearGradient id="SVGID_3_" gradientUnits="userSpaceOnUse" x1="-118.6636" y1="468.14" x2="-88.2634" y2="468.14">
					<stop  offset="0" style="stop-color:#F5574B"/>
					<stop  offset="1" style="stop-color:#FFA05C"/>
				</linearGradient>
				<path class="st2" d="M-92.8,457.6c-2.9-2.9-6.7-4.5-10.7-4.5l0,0c-4,0-7.8,1.6-10.7,4.5s-4.4,6.6-4.4,10.5
					c0,8.2,7,15.1,15.3,15.1l0,0c8.2,0,15.1-6.9,15.1-15.1C-88.3,464.2-89.9,460.4-92.8,457.6z M-93.7,472.2
					c-0.5,1.3-1.3,2.4-2.3,3.4c-2,1.9-4.5,3-7.4,3h-0.1c-2.8,0-5.6-1.2-7.6-3.2s-3-4.6-3-7.4c0.1-5.8,4.7-10.4,10.6-10.4l0,0
					c2.8,0,5.6,1.1,7.5,3c2,2,3.1,4.6,3.1,7.5C-92.9,469.5-93.2,470.9-93.7,472.2z"/>
			</g>
			<g>
				<linearGradient id="SVGID_4_" gradientUnits="userSpaceOnUse" x1="-144.6199" y1="468.1451" x2="-122.7035" y2="468.1451">
					<stop  offset="0" style="stop-color:#F5574B"/>
					<stop  offset="1" style="stop-color:#FFA05C"/>
				</linearGradient>
				<path class="st3" d="M-124.9,477.7l2.2,3.8c-5.3,3-13.3,1.7-17.7-3c-5.7-6.3-5.7-14.4,0-20.7c2.6-3,7.1-4.6,11.2-4.6
					c2.3,0,4.6,0.5,6.5,1.6l-2.2,3.8c-3.2-1.3-6.1-1.3-8.6,0c-1.9,1-3.6,2.4-4.7,3.9c-2.6,3.6-2.3,8.7,0.6,12.3
					C-134.5,478.4-130.3,479.4-124.9,477.7z"/>
			</g>
			<g>
				<linearGradient id="SVGID_5_" gradientUnits="userSpaceOnUse" x1="-157.3455" y1="468.14" x2="-153.0026" y2="468.14">
					<stop  offset="0" style="stop-color:#F5574B"/>
					<stop  offset="1" style="stop-color:#FFA05C"/>
				</linearGradient>
				<rect x="-157.3" y="453.2" class="st4" width="4.3" height="29.9"/>
			</g>
			<g>
				<linearGradient id="SVGID_6_" gradientUnits="userSpaceOnUse" x1="-209.058" y1="368.44" x2="-191.6845" y2="368.44">
					<stop  offset="0" style="stop-color:#F5574B"/>
					<stop  offset="1" style="stop-color:#FFA05C"/>
				</linearGradient>
				<path class="st5" d="M-194.3,362.2c-1.6-1.6-3.8-2.4-6.1-2.4h-0.2c-4.7,0.1-8.6,4-8.5,8.7c0,1.2,0.3,2.3,0.7,3.4
					c0.5,1.1,1.1,2,2,2.8c1.6,1.6,3.8,2.4,6.1,2.4c4.8-0.1,8.6-4,8.6-8.8C-191.7,366-192.7,363.8-194.3,362.2z M-200.4,372.5
					L-200.4,372.5c-1.2,0-2.3-0.5-3-1.3c-0.8-0.8-1.1-1.9-1.1-3c0.1-2.1,1.9-3.9,4-3.9c1,0,2.1,0.5,2.9,1.3c0.8,0.8,1.3,1.9,1.2,3
					C-196.3,370.7-198.1,372.5-200.4,372.5z"/>
			</g>
		</g>
	</g>
</g>
</svg>
