<?xml version="1.0" encoding="utf-8"?>
<!-- Generator: Adobe Illustrator 19.0.1, SVG Export Plug-In . SVG Version: 6.00 Build 0)  -->
<svg version="1.1" id="Capa_1" xmlns="http://www.w3.org/2000/svg" xmlns:xlink="http://www.w3.org/1999/xlink" x="0px" y="0px"
	 viewBox="-102 353.8 480 488" style="enable-background:new -102 353.8 480 488;" xml:space="preserve">
<style type="text/css">
	.st0{fill:url(#SVGID_1_);}
	.st1{fill:url(#SVGID_2_);}
	.st2{fill:url(#SVGID_3_);}
	.st3{fill:url(#SVGID_4_);}
	.st4{fill:url(#SVGID_5_);}
	.st5{fill:url(#SVGID_6_);}
</style>
<g>
	<g>
		
			<linearGradient id="SVGID_1_" gradientUnits="userSpaceOnUse" x1="-102" y1="207.8801" x2="378" y2="207.8801" gradientTransform="matrix(1 0 0 -1 0 841.67)">
			<stop  offset="0" style="stop-color:#F5574B"/>
			<stop  offset="1" style="stop-color:#FFA05C"/>
		</linearGradient>
		<path class="st0" d="M344.4,522.4c10.8-10.2,17.6-24.6,17.6-40.6c0-30.9-25.1-56-56-56s-56,25.1-56,56c0,19.6,10.2,36.9,25.5,46.9
			c-10.5,7.2-17.5,19.4-17.5,33.1v56h-32v-40c0-28.6-21.6-52.3-49.4-55.6c10.7-10.2,17.4-24.5,17.4-40.4c0-30.9-25.1-56-56-56
			s-56,25.1-56,56c0,15.9,6.7,30.2,17.4,40.4C71.6,525.5,50,549.1,50,577.8v40H18v-56c0-13.7-7-25.9-17.5-33.1
			c15.4-10,25.5-27.3,25.5-46.9c0-30.9-25.1-56-56-56s-56,25.1-56,56c0,16,6.8,30.4,17.6,40.6c-19,3.1-33.6,19.5-33.6,39.4v120
			c0,19.3,13.8,35.5,32,39.2v120.8h16v-120h72v112c0,4.4,3.6,8,8,8h48c4.4,0,8-3.6,8-8v-128h48v120H98v16h80v-16h-32v-120h48v128
			c0,4.4,3.6,8,8,8h48c4.4,0,8-3.6,8-8v-112h72v120h16V721c18.2-3.7,32-19.9,32-39.2v-120C378,541.9,363.4,525.5,344.4,522.4z
			 M266,481.8c0-22.1,17.9-40,40-40s40,17.9,40,40s-17.9,40-40,40S266,503.8,266,481.8z M98,481.8c0-22.1,17.9-40,40-40
			s40,17.9,40,40s-17.9,40-40,40S98,503.8,98,481.8z M150.5,537.8L138,571l-12.5-33.2H150.5z M66,577.8c0-22.1,17.9-40,40-40h2.5
			l22.1,58.8c1.2,3.1,4.2,5.2,7.5,5.2s6.3-2.1,7.5-5.2l22-58.8h2.5c22.1,0,40,17.9,40,40v40h-32c-4.4,0-8,3.6-8,8v32h-64v-32
			c0-4.4-3.6-8-8-8h-32v-40H66z M-70,481.8c0-22.1,17.9-40,40-40s40,17.9,40,40s-17.9,40-40,40S-70,503.8-70,481.8z M66,825.8H34
			v-112c0-4.4-3.6-8-8-8h-88c-13.2,0-24-10.8-24-24v-120c0-13.2,10.8-24,24-24h40c13.2,0,24,10.8,24,24v64c0,4.4,3.6,8,8,8h80v24
			H-22v-72h-16v80c0,4.4,3.6,8,8,8h72c13.2,0,24,10.8,24,24V825.8z M194.9,689.8H81.1c-1.2-5.9-3.6-11.4-7.1-16h24h80h24
			C198.5,678.4,196.1,683.9,194.9,689.8z M362,681.8c0,13.2-10.8,24-24,24h-88c-4.4,0-8,3.6-8,8v112h-32v-128c0-13.2,10.8-24,24-24
			h72c4.4,0,8-3.6,8-8v-80h-16v72H186v-24h80c4.4,0,8-3.6,8-8v-64c0-13.2,10.8-24,24-24h40c13.2,0,24,10.8,24,24V681.8z"/>
	</g>
</g>
<g>
	<g>
		
			<linearGradient id="SVGID_2_" gradientUnits="userSpaceOnUse" x1="130" y1="215.88" x2="146" y2="215.88" gradientTransform="matrix(1 0 0 -1 0 841.67)">
			<stop  offset="0" style="stop-color:#F5574B"/>
			<stop  offset="1" style="stop-color:#FFA05C"/>
		</linearGradient>
		<rect x="130" y="617.8" class="st1" width="16" height="16"/>
	</g>
</g>
<g>
	<g>
		
			<linearGradient id="SVGID_3_" gradientUnits="userSpaceOnUse" x1="-22" y1="447.88" x2="106" y2="447.88" gradientTransform="matrix(1 0 0 -1 0 841.67)">
			<stop  offset="0" style="stop-color:#F5574B"/>
			<stop  offset="1" style="stop-color:#FFA05C"/>
		</linearGradient>
		<path class="st2" d="M98,353.8H-14c-4.4,0-8,3.6-8,8v40c0,4.4,3.6,8,8,8h32v16c0,3,1.7,5.8,4.4,7.2c1.1,0.6,2.4,0.8,3.6,0.8
			c1.7,0,3.4-0.5,4.8-1.6l29.9-22.4H98c4.4,0,8-3.6,8-8v-40C106,357.4,102.4,353.8,98,353.8z M90,393.8H58c-1.7,0-3.4,0.6-4.8,1.6
			L34,409.8v-8c0-4.4-3.6-8-8-8H-6v-24h96V393.8z"/>
	</g>
</g>
<g>
	<g>
		
			<linearGradient id="SVGID_4_" gradientUnits="userSpaceOnUse" x1="178" y1="455.88" x2="194" y2="455.88" gradientTransform="matrix(1 0 0 -1 0 841.67)">
			<stop  offset="0" style="stop-color:#F5574B"/>
			<stop  offset="1" style="stop-color:#FFA05C"/>
		</linearGradient>
		<rect x="178" y="377.8" class="st3" width="16" height="16"/>
	</g>
</g>
<g>
	<g>
		
			<linearGradient id="SVGID_5_" gradientUnits="userSpaceOnUse" x1="210" y1="455.88" x2="226" y2="455.88" gradientTransform="matrix(1 0 0 -1 0 841.67)">
			<stop  offset="0" style="stop-color:#F5574B"/>
			<stop  offset="1" style="stop-color:#FFA05C"/>
		</linearGradient>
		<rect x="210" y="377.8" class="st4" width="16" height="16"/>
	</g>
</g>
<g>
	<g>
		
			<linearGradient id="SVGID_6_" gradientUnits="userSpaceOnUse" x1="242" y1="455.88" x2="258" y2="455.88" gradientTransform="matrix(1 0 0 -1 0 841.67)">
			<stop  offset="0" style="stop-color:#F5574B"/>
			<stop  offset="1" style="stop-color:#FFA05C"/>
		</linearGradient>
		<rect x="242" y="377.8" class="st5" width="16" height="16"/>
	</g>
</g>
</svg>
