<?xml version="1.0" encoding="utf-8"?>
<!-- Generator: Adobe Illustrator 19.0.1, SVG Export Plug-In . SVG Version: 6.00 Build 0)  -->
<svg version="1.1" id="Слой_1" xmlns="http://www.w3.org/2000/svg" xmlns:xlink="http://www.w3.org/1999/xlink" x="0px" y="0px"
	 viewBox="0 0 277.8 280.9" style="enable-background:new 0 0 277.8 280.9;" xml:space="preserve">
<style type="text/css">
	.st0{fill:url(#SVGID_1_);}
	.st1{fill:url(#SVGID_2_);}
	.st2{fill:url(#SVGID_3_);}
	.st3{fill:url(#SVGID_4_);}
	.st4{fill:url(#SVGID_5_);}
	.st5{fill:url(#SVGID_6_);}
	.st6{fill:url(#SVGID_7_);}
	.st7{fill:url(#SVGID_8_);}
	.st8{fill:url(#SVGID_9_);}
	.st9{fill:url(#SVGID_10_);}
	.st10{fill:url(#SVGID_11_);}
	.st11{fill:url(#SVGID_12_);}
	.st12{fill:url(#SVGID_13_);}
	.st13{fill:url(#SVGID_14_);}
	.st14{fill:url(#SVGID_15_);}
</style>
<g>
	<linearGradient id="SVGID_1_" gradientUnits="userSpaceOnUse" x1="116.9975" y1="80.3965" x2="277.8315" y2="80.3965">
		<stop  offset="0" style="stop-color:#D7645B"/>
		<stop  offset="1" style="stop-color:#FFA05C"/>
	</linearGradient>
	<path class="st0" d="M259.1,0c5.6,1.4,10.6,3.8,14.3,8.5c5.8,7.3,6.1,18.6,0.5,26.1c-0.9,1.2-1.9,2.4-3,3.5
		c-16.8,16.8-33.6,33.6-50.4,50.4c-0.4,0.4-0.9,0.8-1.5,1.4c-1-0.9-1.9-1.8-3.1-2.8c-0.6,0.6-1.3,1.2-1.9,1.8
		c-9.1,9.1-18.2,18.2-27.3,27.4c-1,1-1.9,2.2-2.6,3.5c-5.7,9.4-11.3,18.8-17,28.2c-0.6,1-1.7,2-2.8,2.3
		c-15.3,3.6-30.6,7.1-45.9,10.7c-0.3,0.1-0.5,0-1.2,0c0.9-3.9,1.8-7.6,2.6-11.4c2.7-11.7,5.3-23.3,8.2-34.9c0.3-1.3,1.4-2.8,2.6-3.5
		c9.3-5.8,18.8-11.4,28.2-17c0.8-0.5,1.6-0.9,2.3-1.5c10-10,20-20,30.2-30.2c-0.9-1-1.8-2-2.9-3.2c0.7-0.8,1.4-1.5,2.1-2.2
		c15.5-15.5,31.1-31,46.5-46.6c4.7-4.8,9.6-8.9,16.4-10.3C255,0,257,0,259.1,0z M219.2,77.4c0.4-0.3,0.8-0.7,1.3-1.2
		c14.7-14.7,29.5-29.5,44.2-44.2c0.7-0.7,1.4-1.4,2-2.3c3-4.3,3.6-8.9,1.2-13.7c-4.2-8.4-14.7-9.9-21.6-3c-12.1,12-24,24-36.1,36
		c-3.3,3.3-6.6,6.6-9.8,9.8C206.7,65.1,212.8,71.1,219.2,77.4z M181.4,109.1c5.1-5.1,9.6-9.7,14.2-14.3c4.6-4.6,9.3-9.3,13.7-13.7
		c-4.2-4.2-8.3-8.3-12.5-12.5c-4.4,4.4-9.2,8.8-13.5,13.7c-11.1,12.5-23.9,22.9-38.9,30.2c-6.6,3.2-10.3,7.7-11,15
		c-0.4,4.4-1.9,8.7-2.9,13.2c5.7-5.7,11.2-11.1,16.7-16.7c-0.8-0.9-1.7-1.9-2.2-2.5c2-2.1,3.9-4.2,5.5-5.9c4,3.9,8,7.9,12.1,11.9
		c-1.9,1.9-3.8,3.8-5.8,5.8c-1-0.9-2-1.8-2.5-2.3c-5.6,5.6-11,11.1-16.2,16.3c6.6-1.5,13.8-3.2,21-4.9c0.6-0.2,1.4-0.6,1.7-1.2
		c5.2-8.5,10.3-17,15.7-26.1c-3.4-3.2-6.8-6.3-9.9-9.2c2.1-2.1,4-4,6.1-6.2C175.4,102.7,178.3,105.8,181.4,109.1z"/>
	<linearGradient id="SVGID_2_" gradientUnits="userSpaceOnUse" x1="118.6459" y1="200.0042" x2="205.9508" y2="200.0042">
		<stop  offset="0" style="stop-color:#D7645B"/>
		<stop  offset="1" style="stop-color:#FFA05C"/>
	</linearGradient>
	<path class="st1" d="M118.6,219.8c0-2.8,0-5.5,0-8.5c1.3,0,2.6,0,3.8,0c20.3,0,40.6,0,60.9,0c4.9,0,9-1.6,12-5.4
		c2.5-3.1,2.7-6.6,0.7-10c-2.6-4.4-6.5-6.8-11.6-7.1c-2.8-0.1-5.6,0-8.7,0c0-2.9,0-5.6,0-8.3c12.7-2,24.2,1.6,29,14
		c3.3,8.3-0.7,17.5-9.1,22.3c-3.8,2.1-7.8,3.1-12.1,3.1c-21,0-42,0-63.1,0C120,220,119.4,219.9,118.6,219.8z"/>
	<linearGradient id="SVGID_3_" gradientUnits="userSpaceOnUse" x1="35.1457" y1="261.4886" x2="126.9972" y2="261.4886">
		<stop  offset="0" style="stop-color:#D7645B"/>
		<stop  offset="1" style="stop-color:#FFA05C"/>
	</linearGradient>
	<path class="st2" d="M35.1,280.8c0-2.8,0-5.5,0-8.5c1.2,0,2.3,0,3.4,0c22.9,0,45.7,0,68.6,0c6.9,0,11.5-4.5,11.3-10.7
		c-0.2-5.9-4.2-10.4-10.1-11.1c-0.9-0.1-1.8-0.1-2.9-0.2c0-2.7,0-5.4,0-8.1c9.6-1.8,19.9,6.1,21.3,16.1c1.7,12.6-6.5,22.6-19.2,22.7
		c-23.6,0.1-47.2,0-70.8,0C36.3,281,35.7,280.9,35.1,280.8z"/>
	<linearGradient id="SVGID_4_" gradientUnits="userSpaceOnUse" x1="17.6106" y1="230.8638" x2="87.761" y2="230.8638">
		<stop  offset="0" style="stop-color:#D7645B"/>
		<stop  offset="1" style="stop-color:#FFA05C"/>
	</linearGradient>
	<path class="st3" d="M56.7,211.3c0,2.9,0,5.6,0,8.6c-2.3,0-4.5,0-6.7,0c-4.2,0-8.4,0.1-12.6,0c-4.2-0.1-7.7,0.8-9.6,4.9
		c-2.1,4.5-2.3,9.2,0.6,13.3c1.2,1.7,3.6,3,5.6,3.4c3.7,0.6,7.5,0.4,11.2,0.4c12.9,0,25.8,0,38.7,0c1.3,0,2.5,0,3.9,0
		c0,2.9,0,5.5,0,8.4c-0.7,0.1-1.4,0.2-2.1,0.2c-16.6,0-33.1,0.1-49.7,0c-9.4-0.1-15.6-5.1-17.8-14c-2.2-9.3,1.5-19,9.1-23
		c2.1-1.1,4.7-1.9,7-2C41.7,211.2,49,211.3,56.7,211.3z"/>
	<linearGradient id="SVGID_5_" gradientUnits="userSpaceOnUse" x1="72.91" y1="172.3488" x2="116.4865" y2="172.3488">
		<stop  offset="0" style="stop-color:#D7645B"/>
		<stop  offset="1" style="stop-color:#FFA05C"/>
	</linearGradient>
	<path class="st4" d="M116.5,181.1c0,3.1,0,5.7,0,8.7c-1.1,0-2.1,0-3,0c-8.2-0.1-16.5,0.4-24.6-0.3c-9.7-0.8-16.1-8.4-15.9-17.6
		c0.2-9.2,7.1-16.3,16.7-17c3-0.2,6,0,9.3,0c0,2.8,0,5.6,0,8.6c-2.3,0-4.6,0.1-6.8,0c-7-0.5-10.5,4.3-10.5,8.9
		c0,5.4,4.1,8.7,10.4,8.7c7.2,0,14.4,0,21.6,0C114.4,181.1,115.3,181.1,116.5,181.1z"/>
	<linearGradient id="SVGID_6_" gradientUnits="userSpaceOnUse" x1="83.0426" y1="215.6633" x2="109.1166" y2="215.6633">
		<stop  offset="0" style="stop-color:#D7645B"/>
		<stop  offset="1" style="stop-color:#FFA05C"/>
	</linearGradient>
	<path class="st5" d="M109.1,211.5c0,2.8,0,5.5,0,8.3c-8.7,0-17.3,0-26.1,0c0-2.7,0-5.4,0-8.3C91.5,211.5,100.2,211.5,109.1,211.5z"
		/>
	<linearGradient id="SVGID_7_" gradientUnits="userSpaceOnUse" x1="0" y1="276.7132" x2="26.0792" y2="276.7132">
		<stop  offset="0" style="stop-color:#D7645B"/>
		<stop  offset="1" style="stop-color:#FFA05C"/>
	</linearGradient>
	<path class="st6" d="M26.1,280.9c-8.8,0-17.3,0-26.1,0c0-2.8,0-5.5,0-8.4c8.6,0,17.2,0,26.1,0C26.1,275.3,26.1,278.1,26.1,280.9z"
		/>
	<linearGradient id="SVGID_8_" gradientUnits="userSpaceOnUse" x1="127.3054" y1="184.4345" x2="148.8528" y2="184.4345">
		<stop  offset="0" style="stop-color:#D7645B"/>
		<stop  offset="1" style="stop-color:#FFA05C"/>
	</linearGradient>
	<path class="st7" d="M148.9,180.3c0,2.7,0,5.4,0,8.3c-7.2,0-14.3,0-21.5,0c0-2.8,0-5.5,0-8.3C134.5,180.3,141.6,180.3,148.9,180.3z
		"/>
	<linearGradient id="SVGID_9_" gradientUnits="userSpaceOnUse" x1="157.7704" y1="184.4412" x2="166.7912" y2="184.4412">
		<stop  offset="0" style="stop-color:#D7645B"/>
		<stop  offset="1" style="stop-color:#FFA05C"/>
	</linearGradient>
	<path class="st8" d="M166.8,180.3c0,2.9,0,5.5,0,8.3c-3,0-5.9,0-9,0c0-2.8,0-5.4,0-8.3C160.8,180.3,163.6,180.3,166.8,180.3z"/>
	<linearGradient id="SVGID_10_" gradientUnits="userSpaceOnUse" x1="105.4461" y1="158.5609" x2="114.3021" y2="158.5609">
		<stop  offset="0" style="stop-color:#D7645B"/>
		<stop  offset="1" style="stop-color:#FFA05C"/>
	</linearGradient>
	<path class="st9" d="M105.4,162.7c0-2.8,0-5.5,0-8.4c2.9,0,5.8,0,8.9,0c0,2.8,0,5.5,0,8.4C111.3,162.7,108.5,162.7,105.4,162.7z"/>
	<linearGradient id="SVGID_11_" gradientUnits="userSpaceOnUse" x1="66.1844" y1="215.6294" x2="74.5467" y2="215.6294">
		<stop  offset="0" style="stop-color:#D7645B"/>
		<stop  offset="1" style="stop-color:#FFA05C"/>
	</linearGradient>
	<path class="st10" d="M74.5,211.5c0,2.8,0,5.5,0,8.3c-2.8,0-5.5,0-8.4,0c0-2.8,0-5.4,0-8.3C68.9,211.5,71.5,211.5,74.5,211.5z"/>
	<linearGradient id="SVGID_12_" gradientUnits="userSpaceOnUse" x1="92.2414" y1="246.1539" x2="100.3963" y2="246.1539">
		<stop  offset="0" style="stop-color:#D7645B"/>
		<stop  offset="1" style="stop-color:#FFA05C"/>
	</linearGradient>
	<path class="st11" d="M100.4,250.3c-2.7,0-5.3,0-8.2,0c0-2.7,0-5.3,0-8.2c2.7,0,5.3,0,8.2,0C100.4,244.8,100.4,247.4,100.4,250.3z"
		/>
	<linearGradient id="SVGID_13_" gradientUnits="userSpaceOnUse" x1="225.381" y1="46.8706" x2="237.1287" y2="46.8706">
		<stop  offset="0" style="stop-color:#D7645B"/>
		<stop  offset="1" style="stop-color:#FFA05C"/>
	</linearGradient>
	<path class="st12" d="M231.5,41.1c1.8,1.7,3.7,3.6,5.7,5.5c-2,2-4,3.9-6,5.9c-1.9-1.9-3.8-3.8-5.8-5.9
		C227.4,44.9,229.4,43,231.5,41.1z"/>
	<linearGradient id="SVGID_14_" gradientUnits="userSpaceOnUse" x1="250.3831" y1="21.9082" x2="261.9361" y2="21.9082">
		<stop  offset="0" style="stop-color:#D7645B"/>
		<stop  offset="1" style="stop-color:#FFA05C"/>
	</linearGradient>
	<path class="st13" d="M261.9,22c-2,1.9-3.9,3.8-5.9,5.8c-1.8-1.9-3.7-4-5.6-6c1.8-1.8,3.8-3.8,5.8-5.8
		C258,17.9,259.9,19.9,261.9,22z"/>
	<linearGradient id="SVGID_15_" gradientUnits="userSpaceOnUse" x1="237.9069" y1="34.4669" x2="249.2035" y2="34.4669">
		<stop  offset="0" style="stop-color:#D7645B"/>
		<stop  offset="1" style="stop-color:#FFA05C"/>
	</linearGradient>
	<path class="st14" d="M243.6,40.3c-2.1-2-4-3.9-5.7-5.6c2-2,4-3.9,6.1-6c1.5,1.8,3.4,3.8,5.2,5.9C247.6,36.2,245.7,38.2,243.6,40.3
		z"/>
</g>
</svg>
