<?xml version="1.0" encoding="utf-8"?>
<!-- Generator: Adobe Illustrator 19.0.1, SVG Export Plug-In . SVG Version: 6.00 Build 0)  -->
<svg version="1.1" id="Слой_1" xmlns="http://www.w3.org/2000/svg" xmlns:xlink="http://www.w3.org/1999/xlink" x="0px" y="0px"
	 viewBox="0 0 371.8 410.1" style="enable-background:new 0 0 371.8 410.1;" xml:space="preserve">
<style type="text/css">
	.st0{fill:url(#SVGID_1_);}
	.st1{fill:url(#SVGID_2_);}
	.st2{fill:url(#SVGID_3_);}
	.st3{fill:url(#SVGID_4_);}
	.st4{fill:url(#SVGID_5_);}
</style>
<g>
	<linearGradient id="SVGID_1_" gradientUnits="userSpaceOnUse" x1="0" y1="88.6386" x2="371.7935" y2="88.6386">
		<stop  offset="0" style="stop-color:#D7645B"/>
		<stop  offset="1" style="stop-color:#FFA05C"/>
	</linearGradient>
	<path class="st0" d="M286.6,0c7.6,3.1,10.8,9,12.6,16.9c6.3,27.7,25.2,42.4,51.8,48.7c1.7,0.4,3.4,0.6,5.1,0.8
		c10.3,1.3,15.4,6.9,15.5,17.3c0.1,13.9,0.2,27.7,0,41.6c-0.2,14.5-0.7,29-1,43.6c0,1.2-0.2,2.4-0.5,3.5c-0.8,3.1-2.9,4.8-6.2,4.5
		c-3.3-0.3-5.1-2.5-5.2-5.6c-0.1-3.2,0.5-6.4,0.6-9.6c0.3-26,0.5-52,0.7-78c0-4.3-1-5.2-6.7-6c-16-2.3-30.2-8.4-42.4-19
		c-12.5-11-20.8-24.5-23.7-41c-0.9-5.3-1.7-6-7-6c-63.1,0-126.1,0-189.2,0c-3.8,0-5.9,1-6.7,5c-6.8,33.2-28.3,51.9-60.1,60
		c-2.8,0.7-5.8,1.1-8.7,1.5c-2.9,0.4-4.2,2.1-4.2,4.9c0.4,28.4,0.8,56.8,1.2,85.1c0,0.9,0.2,1.9,0.1,2.8c-0.2,3.5-2.4,6.2-5.5,6.2
		c-3.4,0-5.6-1.9-6-5.2c-0.6-4.5-1-9-1.1-13.5C0.1,133.4,0,108.4,0,83.3c0-10.2,5.3-15.4,15.9-17c23.5-3.6,41.6-14.9,52.4-36.6
		c1.9-3.9,3.5-8.2,4.1-12.4C73.6,9.1,77.2,3.1,85,0C152.2,0,219.4,0,286.6,0z"/>
	<linearGradient id="SVGID_2_" gradientUnits="userSpaceOnUse" x1="28.5437" y1="200.7172" x2="343.3048" y2="200.7172">
		<stop  offset="0" style="stop-color:#D7645B"/>
		<stop  offset="1" style="stop-color:#FFA05C"/>
	</linearGradient>
	<path class="st1" d="M186.1,27.1c23.3,0,46.7,0.2,70-0.1c9.6-0.1,16.2,3.9,20.5,12.4c11.4,22.4,28.9,38.4,52,48.1
		c10.5,4.4,15.2,11.6,14.8,22.9c-0.5,16,0.1,32-0.9,48c-1.5,24.5-6.8,48.2-15.8,71c-24.2,61.2-66.5,106.3-122.7,139.4
		c-12.9,7.6-23.2,7.6-36.1,0c-40.3-23.8-74.2-54.1-99.5-93.6c-21.7-33.8-35.2-70.8-38.3-111c-1.5-19.1-1.2-38.3-1.4-57.5
		c-0.1-8.6,4.2-14.6,12.2-18c17.4-7.3,32.4-17.8,43.9-32.9c3.9-5.2,7.4-10.7,10.5-16.5c4.5-8.4,10.9-12.4,20.6-12.3
		C139.1,27.2,162.6,27.1,186.1,27.1z M186,38.6c-23.5,0-46.9,0.1-70.4-0.1c-4.9,0-8.2,1.5-10.1,6.1c-0.5,1.3-1.4,2.6-2.1,3.9
		c-11.9,21.3-29,37-50.9,47.5c-13.8,6.6-12.4,4.5-12.4,19.4c0,21.3-0.5,42.6,3.2,63.8c8.1,46.5,28.3,87.1,59.5,122.3
		c22.3,25.1,48.6,45,78,61c3.6,1.9,6.7,1.7,10.2-0.2c41-22.3,75.3-52,101-91.2c22.7-34.8,36.1-72.9,38.6-114.5
		c0.9-15.2,0.2-30.4,0.9-45.6c0.3-7-2.2-10.6-8.5-13.3c-25.2-10.8-44.2-28.3-56.7-52.8c-2.4-4.7-5.6-6.5-10.7-6.4
		C232.4,38.7,209.2,38.6,186,38.6z"/>
	<linearGradient id="SVGID_3_" gradientUnits="userSpaceOnUse" x1="6.5206" y1="303.2814" x2="365.166" y2="303.2814">
		<stop  offset="0" style="stop-color:#D7645B"/>
		<stop  offset="1" style="stop-color:#FFA05C"/>
	</linearGradient>
	<path class="st2" d="M186,410.1c-2.8-0.9-5.4-1.4-7.8-2.5c-30.3-15-59-32.6-84-55.6c-43.6-40.1-73.4-88.5-87.3-146.4
		c-1.2-4.8,0.2-7.9,3.7-8.8c3.8-0.9,6.4,1,7.7,6.1c4.1,17,9.6,33.5,16.9,49.4c17,37,41.2,68.6,71.8,95.4c22.8,20,48.5,35.5,75.6,49
		c1.7,0.9,4.6,1,6.3,0.1c32.2-15.9,62.2-35,88-60.3c37.5-36.9,63.5-80.5,76.2-131.8c0.3-1,0.5-2.1,0.8-3.1c1.2-3.5,3.8-5.3,6.9-4.7
		c3.2,0.7,5.2,3.6,4.3,7.4c-1.2,5.5-2.6,10.9-4.2,16.2c-21.7,70.7-65,124.7-126.9,164.3c-12.8,8.2-26.4,15-39.7,22.3
		C191.7,408.5,188.8,409.1,186,410.1z"/>
	<linearGradient id="SVGID_4_" gradientUnits="userSpaceOnUse" x1="101.0022" y1="163.4372" x2="271.3071" y2="163.4372">
		<stop  offset="0" style="stop-color:#D7645B"/>
		<stop  offset="1" style="stop-color:#FFA05C"/>
	</linearGradient>
	<path class="st3" d="M129.1,145.5c0-9.3,0-18,0-26.6c0.2-34.2,26.6-59.5,60.7-58.1c27.5,1.1,51.8,25.2,53,52.6
		c0.4,8.8,0.2,17.6,0.3,26.4c0,1.7,0,3.4,0,5.7c3,0,5.6,0,8.2,0c11.8,0.1,19.7,7.1,19.9,18.9c0.3,27.6,0.3,55.2,0,82.8
		c-0.1,11.9-8,18.8-20.3,18.8c-19.3,0.1-38.7,0.1-58,0.1c-23.6,0-47.2,0-70.8,0c-11,0-18.4-5.3-20.5-14.7c-0.4-2.1-0.5-4.2-0.5-6.4
		c0-26.1,0-52.3,0-78.4c0-13.7,7.3-21,20.9-21C124.2,145.5,126.4,145.5,129.1,145.5z M185.9,254.4c21.3,0,42.6,0,64,0
		c7.4,0,9.6-2.2,9.6-9.5c0-26.1,0-52.2,0-78.3c0-7.2-2.2-9.5-9.6-9.5c-42.5,0-85,0-127.5,0c-7.4,0-9.6,2.2-9.6,9.5
		c0,26.1,0,52.2,0,78.3c0,7.2,2.3,9.4,9.7,9.4C143.5,254.4,164.7,254.4,185.9,254.4z M231.3,145.4c0-10.3,0.4-20.3-0.1-30.2
		c-1-21.4-18-39.8-38.9-42.3c-22.5-2.7-43.3,10.4-49.5,31.6c-3.9,13.4-1.3,27.2-2.1,41C171.2,145.4,201,145.4,231.3,145.4z"/>
	<linearGradient id="SVGID_5_" gradientUnits="userSpaceOnUse" x1="172.3007" y1="210.0188" x2="199.5789" y2="210.0188">
		<stop  offset="0" style="stop-color:#D7645B"/>
		<stop  offset="1" style="stop-color:#FFA05C"/>
	</linearGradient>
	<path class="st4" d="M199.6,199.7c-0.1,4.4-2.1,7.8-5.4,10.7c-1.1,1-2,2.7-2.1,4.2c-0.3,4.2,0,8.5-0.1,12.8
		c-0.1,4.2-2.5,6.8-5.8,6.8c-3.5,0-5.8-2.7-5.9-7.1c0-2.3,0-4.5,0-6.8c0.1-4.6,0.3-8.6-4.3-12.2c-4.7-3.7-4.6-11-1.3-16.1
		c3.3-5.1,9.9-7.4,15.8-5.4C196.1,188.4,199.8,193.8,199.6,199.7z"/>
</g>
</svg>
