<?xml version="1.0" encoding="utf-8"?>
<!-- Generator: Adobe Illustrator 19.0.1, SVG Export Plug-In . SVG Version: 6.00 Build 0)  -->
<svg version="1.1" id="Слой_1" xmlns="http://www.w3.org/2000/svg" xmlns:xlink="http://www.w3.org/1999/xlink" x="0px" y="0px"
	 viewBox="0 0 409.5 414.5" style="enable-background:new 0 0 409.5 414.5;" xml:space="preserve">
<style type="text/css">
	.st0{fill:url(#SVGID_1_);}
	.st1{fill:url(#SVGID_2_);}
	.st2{fill:url(#SVGID_3_);}
	.st3{fill:url(#SVGID_4_);}
</style>
<g>
	<linearGradient id="SVGID_1_" gradientUnits="userSpaceOnUse" x1="0" y1="210.6434" x2="409.53" y2="210.6434">
		<stop  offset="0" style="stop-color:#CE675E"/>
		<stop  offset="1" style="stop-color:#E69E6A"/>
	</linearGradient>
	<path class="st0" d="M0,345.8c2.1-1.8,4-3.9,6.2-5.4c11.2-7.6,22.6-15.1,33.9-22.7c1.1-0.7,2.1-1.5,3.5-2.5c-1.7-3.3-3.4-6.4-5-9.6
		c-2.9-5.6-2.9-7.9,2.1-11.8c9.3-7.2,19.1-13.9,28.8-20.8c1.6-1.1,3.4-1.9,5.4-3c-2.1-5.1-4.1-9.8-6-14.6
		c-11.5-28.9-18.7-58.8-22.8-89.5c-0.6-4.2,1.3-7.3,4.9-7.9c3.4-0.6,6,1.7,6.9,6.1c3.9,18.8,6.9,37.8,11.9,56.2
		c10.6,39.5,28.7,75.3,56.1,106c21.5,24,47.1,42.2,76.9,54.6c1.5,0.6,3.9,0.3,5.5-0.5c47.4-20.3,82.6-53.9,107.1-98.9
		c16.1-29.6,26.3-61.3,32.6-94.4c6.7-34.8,9.1-70,7.4-105.4c-0.1-2.5-1.2-3-3.3-3.3c-37.1-4.8-72.3-15.7-105.4-32.9
		c-13.2-6.9-25.7-15.2-38.3-23.1c-2.5-1.5-3.9-2-6.5-0.1C162,50.6,117.9,68.1,70.2,76.8c-4.2,0.8-8.4,1.4-12.7,1.8
		c-2.3,0.2-3.2,1.2-3.2,3.5c0.2,17.1,0.4,34.1,0.5,51.2c0,1.7,0.2,3.5,0.3,5.2c0,4.3-2.3,7.1-5.8,7.2c-3.5,0.1-5.9-2.6-6.2-6.9
		c-0.5-7.9-1.2-15.7-1.2-23.6c0-13.5,0.4-26.9,1-40.4c0.2-5.4,2-6.8,7.5-7.4c36.9-4.2,72.1-14.3,105-31.5c15.3-8,29.6-17.8,44.3-27
		c4.3-2.7,6-2.9,10.1,0c38.3,28.4,81.2,46.4,128,55.2c7.2,1.4,14.5,2.2,21.7,3.3c5.1,0.7,6.7,2.2,7.1,7.4c2,22.1,1.5,44.2-0.4,66.3
		c-2.3,27.3-6.2,54.3-14.2,80.5c-4.5,14.9-10.3,29.3-15.5,44c-0.5,1.4-1.1,2.7-1.8,4.4c1.8,1,3.6,1.8,5.2,3
		c9.6,6.7,19.3,13.3,28.5,20.4c5.6,4.3,5.6,6.4,2.3,12.7c-1.5,2.9-3,5.9-4.7,9.1c2.8,1.9,5.4,3.7,8,5.5
		c10.3,6.9,20.6,13.8,30.9,20.7c6.5,4.4,6.2,9.1-0.7,12.9c-9.4,5.2-18.9,10.4-28.4,15.5c-2.1,1.1-3,2.4-3,4.9
		c0.2,10.7,0.1,21.3,0.1,32c0,7.2-4.3,9.7-10.5,6.1c-21.4-12.6-42.7-25.2-64-37.8c-4.3-2.6-5.1-5.2-3-9.7c2.4-5.2,4.9-10.3,7.7-16
		c-5.5-2.3-10.6-4.6-16-6.5c-1-0.3-2.9,0.8-3.9,1.8c-21.3,21-46,37-73.6,48.5c-3.3,1.4-6.2,1.4-9.5,0.1
		c-27.7-11.4-52.3-27.4-73.6-48.6c-2-2-3.7-2.4-6.3-1.2c-4.4,2.1-9,3.9-13.8,5.9c2.7,5.6,5.1,10.7,7.6,15.9c2.2,4.7,1.5,7.3-3,10
		c-21.2,12.5-42.4,25.1-63.7,37.6c-6.4,3.8-10.6,1.3-10.6-6.2c0-10.7-0.1-21.3,0-32c0-2.3-0.8-3.6-2.8-4.7
		c-9.6-5.2-19.2-10.4-28.7-15.8c-2.1-1.2-3.5-3.4-5.3-5.1C0,347.9,0,346.9,0,345.8z M78.8,280.8c-8.3,5.8-17.2,12.1-26.1,18.2
		c-2.3,1.6-2.4,3.1-1.1,5.6c8.2,15.2,16.1,30.6,24.1,45.9c0.5,1,1.2,1.9,1.6,2.7c6.3-4,12.1-8,18.2-11.4c6.1-3.4,12.5-6.2,18.1-8.9
		C102.3,315.9,90.9,298.9,78.8,280.8z M296.3,332.4c11.6,6.5,23.8,13.3,36.5,20.4c-0.6,0.3-0.4,0.3-0.4,0.2
		c8.8-16.6,17.5-33.2,26.2-49.9c0.4-0.8-0.1-2.7-0.9-3.2c-9.1-6.6-18.3-13.1-26.9-19.1C318.8,298.7,307.5,315.7,296.3,332.4z
		 M392.1,347.2c-10.9-7.3-21.2-14.2-31.8-21.2c-6.9,13.1-13.6,25.8-20.1,38.6c-1.6,3.2-3.9,4.8-7.4,5.3c-4.8,0.6-9.5,1.6-15.2,2.6
		c14.9,8.8,28.8,17,43.3,25.6c0-9.8,0.1-18.7-0.1-27.6c-0.1-4.3,1.5-7,5.3-8.9c3.2-1.5,6.3-3.4,9.5-5.2
		C380.9,353.4,386.3,350.4,392.1,347.2z M17.5,347.2c9.3,5.1,17.8,9.9,26.5,14.5c3.3,1.8,4.8,4.2,4.8,8c-0.1,8.3-0.1,16.5-0.1,24.8
		c0,1,0.2,1.9,0.4,3.2c14.4-8.5,28.3-16.7,43-25.4c-5.7-1-10.3-1.9-15.1-2.5c-3.7-0.5-6-2.2-7.6-5.5c-3.2-6.4-6.6-12.7-10-19.1
		c-3.3-6.3-6.6-12.7-10.1-19.3C38.7,333.1,28.4,340,17.5,347.2z M89.3,359.7c3.8,0.6,6.3,1,9.6,1.5c-1.2-2.3-2-4-3-5.9
		C93.8,356.7,92,357.9,89.3,359.7z M310.8,361.3c3.3-0.6,5.9-1,9.5-1.6c-2.9-1.8-4.7-3-6.7-4.3C312.6,357.4,311.9,359,310.8,361.3z"
		/>
	<linearGradient id="SVGID_2_" gradientUnits="userSpaceOnUse" x1="79.2301" y1="171.4895" x2="329.7673" y2="171.4895">
		<stop  offset="0" style="stop-color:#CE675E"/>
		<stop  offset="1" style="stop-color:#E69E6A"/>
	</linearGradient>
	<path class="st1" d="M317.8,110.1c-13.1-3-25.7-5.4-38.1-8.9c-25.8-7.3-49.8-18.6-71.8-34c-1.9-1.3-3.2-2.1-5.5-0.4
		C169.6,89.6,133.4,103.4,94,109c-0.5,0.1-1,0.2-2.1,0.4c-0.2,2.9-0.5,5.9-0.5,8.9c-0.6,34.2,3,67.8,13,100.6
		c6.5,21.5,15.6,41.9,28.5,60.4c0.5,0.7,0.9,1.3,1.4,2c2.3,3.7,1.9,7.1-1,9.2c-2.9,2-6.4,1.2-8.9-2.5c-3.4-4.9-6.8-9.9-9.7-15.1
		c-17.8-31.1-27.6-64.7-32.2-100c-2.9-22.3-3.9-44.6-2.3-67c0.4-5.8,1.8-7.5,7.6-8.2c37.1-4.5,71.3-17,102.7-37.3
		c3.1-2,6.1-4.3,9.1-6.4c4.6-3.3,6.2-3.4,10.7,0c19.6,14.6,41.3,25.2,64.4,33.1c15.5,5.3,31.5,8.7,47.8,10.7c5.5,0.7,7.2,2.5,7.3,8
		c0.2,13.3,0.3,26.6,0,39.9c0,2.1-1.8,4.8-3.6,6c-1.3,0.9-4.8,0.4-5.7-0.8c-1.5-1.8-2.3-4.7-2.4-7.2c-0.2-10,0-20,0.1-30
		C318.1,112.3,317.8,110.9,317.8,110.1z"/>
	<linearGradient id="SVGID_3_" gradientUnits="userSpaceOnUse" x1="133.6399" y1="199.2962" x2="278.0245" y2="199.2962">
		<stop  offset="0" style="stop-color:#CE675E"/>
		<stop  offset="1" style="stop-color:#E69E6A"/>
	</linearGradient>
	<path class="st2" d="M189.1,204.3c1.2-1.7,2-3,3-4c16.4-16.4,32.7-32.9,49.2-49.2c11.2-11.1,28-8.6,34.5,4.9
		c3.5,7.3,2.8,14.5-1.8,21.2c-1.2,1.7-2.7,3.3-4.2,4.8c-21.4,21.4-42.8,42.8-64.2,64.2c-11,11-22.8,11-33.9-0.1
		c-10.6-10.6-21.2-21-31.6-31.7c-10.7-11-7.8-27.8,5.6-34.2c8.1-3.8,17.2-2.1,24.2,4.7C176.2,191,182.2,197.3,189.1,204.3z
		 M156.3,190.4c-5.6,0-8.9,2.4-10.1,6.2c-1.4,4.3,0.5,7.5,3.4,10.4c10.2,10.2,20.4,20.3,30.6,30.5c6.5,6.5,10.7,6.5,17.2,0
		c21.2-21.2,42.4-42.4,63.6-63.6c1-1,2.1-2.1,2.9-3.3c2.8-3.8,2.5-8.6-0.5-11.7c-3.1-3.2-7.8-3.6-11.7-0.9c-1.3,0.9-2.4,2.1-3.6,3.2
		c-17.8,17.8-35.6,35.6-53.5,53.4c-4.6,4.6-7.3,4.6-11.8,0.1c-6.8-6.8-13.5-13.7-20.4-20.3C160.4,192.5,157.6,191.3,156.3,190.4z"/>
	<linearGradient id="SVGID_4_" gradientUnits="userSpaceOnUse" x1="139.4458" y1="257.1521" x2="328.3253" y2="257.1521">
		<stop  offset="0" style="stop-color:#CE675E"/>
		<stop  offset="1" style="stop-color:#E69E6A"/>
	</linearGradient>
	<path class="st3" d="M328.3,171.9c-3.3,15.2-6.1,30.5-10.1,45.5c-7.4,27.8-19.5,53.5-37.2,76.3c-19.4,25.1-44,43.5-73.5,55.3
		c-1.8,0.7-4.5,0.4-6.5-0.3c-22-8.9-41.5-21.6-58.2-38.5c-3.9-4-4.5-7.1-1.7-10c2.6-2.7,6.4-2.3,10.1,1.4
		c14.5,14.6,31.3,26.1,50.2,34.2c1.9,0.8,4.8,0.9,6.6,0c39.6-17.5,67.3-46.9,85.5-85.7c11.5-24.4,17.9-50.3,21.6-76.9
		c0.1-1.1,0.3-2.1,0.6-3.1c1-3.8,3.6-5.7,6.9-5.1C326.3,165.7,327.6,168.2,328.3,171.9z"/>
</g>
</svg>
