<?xml version="1.0" encoding="utf-8"?>
<!-- Generator: Adobe Illustrator 19.0.1, SVG Export Plug-In . SVG Version: 6.00 Build 0)  -->
<svg version="1.1" id="Layer_1" xmlns="http://www.w3.org/2000/svg" xmlns:xlink="http://www.w3.org/1999/xlink" x="0px" y="0px"
	 viewBox="-41 164.9 512 512" style="enable-background:new -41 164.9 512 512;" xml:space="preserve">
<style type="text/css">
	.st0{fill:url(#SVGID_1_);}
	.st1{fill:url(#SVGID_2_);}
	.st2{fill:url(#SVGID_3_);}
	.st3{fill:url(#SVGID_4_);}
	.st4{fill:url(#SVGID_5_);}
	.st5{fill:url(#SVGID_6_);}
	.st6{fill:url(#SVGID_7_);}
</style>
<g>
	<g>
		<linearGradient id="SVGID_1_" gradientUnits="userSpaceOnUse" x1="351.751" y1="404.8495" x2="414.8677" y2="404.8495">
			<stop  offset="0" style="stop-color:#F5574B"/>
			<stop  offset="1" style="stop-color:#FFA05C"/>
		</linearGradient>
		<path class="st0" d="M410.7,402.1c-17.4-8.7-50.1-8.8-51.5-8.8c-4.1,0-7.5,3.4-7.5,7.5s3.4,7.5,7.5,7.5c8.4,0,32.9,1.3,44.8,7.2
			c1.1,0.5,2.2,0.8,3.3,0.8c2.8,0,5.4-1.5,6.7-4.1C415.9,408.5,414.4,404,410.7,402.1z"/>
	</g>
</g>
<g>
	<g>
		<linearGradient id="SVGID_2_" gradientUnits="userSpaceOnUse" x1="-41" y1="420.8895" x2="471" y2="420.8895">
			<stop  offset="0" style="stop-color:#F5574B"/>
			<stop  offset="1" style="stop-color:#FFA05C"/>
		</linearGradient>
		<path class="st1" d="M448.1,508.9l-31-8.9c-1.3-0.4-2.3-1.6-2.3-3v-10.3c2.5-1.7,4.9-3.7,7.2-5.9c10.9-10.6,16.9-24.7,16.9-39.9
			v-14.3l3-6c3.3-6.6,5-13.9,5-21.3v-38.6c0-4.1-3.4-7.5-7.5-7.5h-72.2c-26.2,0-47.6,21.4-47.6,47.6v0.4c0,6.1,1.4,12.2,4.2,17.7
			l3.8,7.7v12.3c0,19.4,9.6,36.8,24.1,47.3l0,10.8c0,1.7,0,2.4-6.2,4.1l-15.1,4.3l-43.7-15.9c0.2-2.1-0.5-4.2-2-5.7l-14-14.7v-24.6
			c1.5-1.2,2.9-2.5,4.3-3.8c17.6-16.5,27.7-39.8,27.7-64v-19.7c5.3-11.6,8-23.8,8-36.5v-80.2c0-4.1-3.4-7.5-7.5-7.5H191
			c-39.5,0-71.7,32.1-71.7,71.7v16c0,12.6,2.7,24.9,8,36.5V374c0,28,12.5,53.3,32.1,69.9v25.2l-14,14.7c-1.5,1.6-2.2,3.7-2,5.7
			l-46.1,16.8c-3.3,1.2-6.5,2.9-9.3,4.9l-7.2-3.6c21.6-9.4,28.4-22.6,28.7-23.3c1.1-2.1,1.1-4.6,0-6.7c-5.4-10.8-6.1-30.6-6.6-46.6
			c-0.2-5.3-0.3-10.3-0.7-14.8c-2.6-36-29.9-63.1-63.6-63.1s-61.1,27.1-63.6,63.1c-0.3,4.5-0.5,9.5-0.7,14.8
			c-0.5,15.9-1.2,35.7-6.6,46.6c-1.1,2.1-1.1,4.6,0,6.7c0.3,0.7,7.1,13.8,28.8,23.2l-20.1,10.1c-10.8,5.4-17.4,16.2-17.4,28.2v55.4
			c0,4.1,3.4,7.5,7.5,7.5s7.5-3.4,7.5-7.5v-55.4c0-6.3,3.5-12,9.2-14.8l25.1-12.5l8.7,8.3c6.1,5.8,13.9,8.7,21.7,8.7
			c7.8,0,15.6-2.9,21.7-8.7l8.7-8.3l8.2,4.1c-3.8,6.2-6,13.4-6,20.9v57.7c0,4.1,3.4,7.5,7.5,7.5s7.5-3.4,7.5-7.5v-57.7
			c0-10.3,6.5-19.6,16.2-23.1l48.7-17.7l20.3,30.4c2.6,3.9,6.7,6.4,11.4,6.8c0.5,0.1,1,0.1,1.5,0.1c4.1,0,8-1.6,11-4.5l12.4-12.4
			v78.1c0,4.1,3.4,7.5,7.5,7.5s7.5-3.4,7.5-7.5v-78.1l12.4,12.4c2.9,2.9,6.9,4.5,11,4.5c0.5,0,1,0,1.5-0.1c4.6-0.5,8.8-3,11.4-6.8
			l20.3-30.4l48.7,17.7c9.7,3.5,16.2,12.8,16.2,23.1v57.7c0,4.1,3.4,7.5,7.5,7.5s7.5-3.4,7.5-7.5v-57.7c0-10.4-4.1-20.2-11.1-27.4
			l1.9-0.5c1.9-0.5,4.4-1.3,7-2.5l19.1,19.1v69.1c0,4.1,3.4,7.5,7.5,7.5s7.5-3.4,7.5-7.5v-69.1l19-19c1,0.5,2.1,0.9,3.2,1.3l31,8.9
			c7.1,2,12,8.6,12,15.9v62c0,4.1,3.4,7.5,7.5,7.5s7.5-3.4,7.5-7.5v-62C471,525.3,461.6,512.8,448.1,508.9z M7.1,495.7
			c-14-5-21.1-11.8-24.1-15.5c2-5.4,3.4-11.5,4.3-18c4.1,9.9,11.1,18.4,19.8,24.4V495.7z M50.1,516c-6.4,6.1-16.4,6.1-22.8,0l-7-6.6
			c1.2-2.2,1.8-4.7,1.8-7.3v-8c5.2,1.6,10.8,2.5,16.6,2.5c5.8,0,11.3-0.9,16.6-2.5l0,8c0,2.6,0.6,5.1,1.8,7.3L50.1,516z M38.7,481.6
			c-22.4,0-40.6-18.2-40.6-40.6c0-4.1-3.4-7.5-7.5-7.5c-0.4,0-0.8,0-1.2,0.1c0-0.6,0-1.3,0.1-1.9c0.2-5.2,0.3-10,0.6-14.2
			c1-13.5,6.3-25.9,15.2-35c8.9-9.2,20.8-14.2,33.5-14.2s24.6,5,33.5,14.2c8.8,9.1,14.2,21.5,15.2,35c0.3,4.2,0.5,9,0.6,14.2
			c0,0.4,0,0.9,0,1.3c-8.2-12.6-20.8-21.8-37-27.1c-15-4.8-28-4.5-28.5-4.5c-2,0.1-3.8,0.9-5.2,2.3l-13.5,14
			c-2.9,3-2.8,7.7,0.2,10.6s7.7,2.8,10.6-0.2l11.3-11.7c9.7,0.5,40.9,4.1,53,30.8C75.7,466.9,58.8,481.6,38.7,481.6z M70.2,495.7
			l0-8.9c8.7-6,15.7-14.5,19.8-24.4c0.9,6.5,2.2,12.6,4.3,17.9C91.3,483.9,84.2,490.7,70.2,495.7z M142.4,374v-18.6
			c0-1.1-0.3-2.2-0.7-3.3c-4.8-10-7.3-20.6-7.3-31.5v-16c0-31.2,25.4-56.7,56.7-56.7h104.8v72.7c0,10.9-2.4,21.5-7.3,31.5
			c-0.5,1-0.7,2.1-0.7,3.3v21.4c0,20.3-8.2,39.1-23,53c-1.9,1.7-3.8,3.4-5.8,4.9c0,0-0.1,0.1-0.1,0.1
			c-13.9,10.5-30.9,15.7-48.7,14.5C172.2,446.9,142.4,413.8,142.4,374z M184.6,524.9c-0.1,0.1-0.2,0.2-0.4,0.1
			c-0.2,0-0.3-0.2-0.4-0.2l-23.3-35l7.5-7.9l35.4,24.2L184.6,524.9z M215.1,496l-40.6-27.8v-14c10.5,5.7,22.3,9.2,34.8,10
			c2,0.1,3.9,0.2,5.9,0.2c14.3,0,28.1-3.4,40.5-9.9v13.7L215.1,496z M246.4,524.9c0,0.1-0.1,0.2-0.4,0.2c-0.2,0-0.4-0.1-0.4-0.1
			l-18.8-18.8l35.4-24.2l7.5,7.9L246.4,524.9z M383.3,518.5l-17-17c0.3-1.3,0.5-2.8,0.5-4.5l0-3.2c4.7,1.5,9.7,2.5,14.9,2.6
			c0.6,0,1.2,0,1.7,0c5.7,0,11.2-0.9,16.5-2.5v3c0,1.5,0.2,3,0.5,4.4L383.3,518.5z M411.6,470.1c-7.9,7.7-18.5,11.8-29.5,11.4
			c-21.7-0.7-39.4-19.8-39.4-42.6v-14c0-1.2-0.3-2.3-0.8-3.4l-4.6-9.3c-1.7-3.4-2.6-7.2-2.6-11v-0.4c0-18,14.6-32.6,32.6-32.6h64.7
			v31.1c0,5-1.2,10.1-3.4,14.6l-3.8,7.6c-0.5,1-0.8,2.2-0.8,3.4v16C423.9,452,419.5,462.4,411.6,470.1z"/>
	</g>
</g>
<g>
	<g>
		<linearGradient id="SVGID_3_" gradientUnits="userSpaceOnUse" x1="423.923" y1="577.2615" x2="438.923" y2="577.2615">
			<stop  offset="0" style="stop-color:#F5574B"/>
			<stop  offset="1" style="stop-color:#FFA05C"/>
		</linearGradient>
		<path class="st2" d="M431.4,545.7c-4.1,0-7.5,3.4-7.5,7.5v48.1c0,4.1,3.4,7.5,7.5,7.5s7.5-3.4,7.5-7.5v-48.1
			C438.9,549.1,435.6,545.7,431.4,545.7z"/>
	</g>
</g>
<g>
	<g>
		<linearGradient id="SVGID_4_" gradientUnits="userSpaceOnUse" x1="-8.923" y1="582.2185" x2="6.077" y2="582.2185">
			<stop  offset="0" style="stop-color:#F5574B"/>
			<stop  offset="1" style="stop-color:#FFA05C"/>
		</linearGradient>
		<path class="st3" d="M-1.4,555.6c-4.1,0-7.5,3.4-7.5,7.5v38.2c0,4.1,3.4,7.5,7.5,7.5s7.5-3.4,7.5-7.5v-38.2
			C6.1,559,2.7,555.6-1.4,555.6z"/>
	</g>
</g>
<g>
	<g>
		<linearGradient id="SVGID_5_" gradientUnits="userSpaceOnUse" x1="151.46" y1="322.6398" x2="278.7288" y2="322.6398">
			<stop  offset="0" style="stop-color:#F5574B"/>
			<stop  offset="1" style="stop-color:#FFA05C"/>
		</linearGradient>
		<path class="st4" d="M276.5,323.4c-28.4-28.4-87.7-22.9-111.9-19.3c-7.6,1.1-13.2,7.6-13.2,15.3v17.3c0,4.1,3.4,7.5,7.5,7.5
			s7.5-3.4,7.5-7.5v-17.3c0-0.3,0.2-0.5,0.4-0.5c9.7-1.5,28.9-3.7,48.7-2.4c23.4,1.6,40.3,7.4,50.3,17.5c2.9,2.9,7.7,2.9,10.6,0
			C279.5,331,279.5,326.3,276.5,323.4z"/>
	</g>
</g>
<g>
	<g>
		<linearGradient id="SVGID_6_" gradientUnits="userSpaceOnUse" x1="119.384" y1="585.2815" x2="134.384" y2="585.2815">
			<stop  offset="0" style="stop-color:#F5574B"/>
			<stop  offset="1" style="stop-color:#FFA05C"/>
		</linearGradient>
		<path class="st5" d="M126.9,561.7c-4.1,0-7.5,3.4-7.5,7.5v32.1c0,4.1,3.4,7.5,7.5,7.5s7.5-3.4,7.5-7.5v-32.1
			C134.4,565.1,131,561.7,126.9,561.7z"/>
	</g>
</g>
<g>
	<g>
		<linearGradient id="SVGID_7_" gradientUnits="userSpaceOnUse" x1="295.806" y1="585.2815" x2="310.806" y2="585.2815">
			<stop  offset="0" style="stop-color:#F5574B"/>
			<stop  offset="1" style="stop-color:#FFA05C"/>
		</linearGradient>
		<path class="st6" d="M303.3,561.7c-4.1,0-7.5,3.4-7.5,7.5v32.1c0,4.1,3.4,7.5,7.5,7.5s7.5-3.4,7.5-7.5v-32.1
			C310.8,565.1,307.4,561.7,303.3,561.7z"/>
	</g>
</g>
</svg>
