<?xml version="1.0" encoding="utf-8"?>
<!-- Generator: Adobe Illustrator 19.0.1, SVG Export Plug-In . SVG Version: 6.00 Build 0)  -->
<svg version="1.1" id="Layer_1" xmlns="http://www.w3.org/2000/svg" xmlns:xlink="http://www.w3.org/1999/xlink" x="0px" y="0px"
	 viewBox="-147 270.9 300 300" style="enable-background:new -147 270.9 300 300;" xml:space="preserve">
<style type="text/css">
	.st0{fill:#29384D;}
</style>
<g id="XMLID_496_">
	<path id="XMLID_497_" class="st0" d="M-141.7,415.5l69.1,25.8l26.8,86c1.7,5.5,8.5,7.5,12.9,3.9l38.5-31.4c4-3.3,9.8-3.5,14-0.4
		l69.5,50.5c4.8,3.5,11.6,0.9,12.8-4.9l50.9-244.9c1.3-6.3-4.9-11.6-10.9-9.3l-283.7,109.4C-148.8,403-148.7,412.9-141.7,415.5z
		 M-50.1,427.6L85,344.4c2.4-1.5,4.9,1.8,2.8,3.7L-23.7,451.8c-3.9,3.6-6.4,8.5-7.2,13.8l-3.8,28.1c-0.5,3.8-5.8,4.1-6.8,0.5
		l-14.6-51.3C-57.7,437.1-55.3,430.8-50.1,427.6z"/>
</g>
</svg>
